<?xml version="1.0" encoding="UTF-8"?>
<svg version="1.1" xmlns="http://www.w3.org/2000/svg" width="838" height="838">
<path d="M0 0 C276.54 0 553.08 0 838 0 C838 276.54 838 553.08 838 838 C561.46 838 284.92 838 0 838 C0 561.46 0 284.92 0 0 Z " fill="#F7F5F3" transform="translate(0,0)"/>
<path d="M0 0 C0.639375 0.639375 1.27875 1.27875 1.9375 1.9375 C1.9375 2.9275 1.9375 3.9175 1.9375 4.9375 C2.5975 4.9375 3.2575 4.9375 3.9375 4.9375 C4.67377813 19.31537577 1.39284729 26.60373661 -7.0625 37.9375 C-7.701875 38.824375 -8.34125 39.71125 -9 40.625 C-10.81256348 42.65726815 -12.62814776 44.34294738 -14.6875 46.11328125 C-18.92452252 49.79429924 -23.03751213 53.59185186 -27.125 57.4375 C-27.79337891 58.06269531 -28.46175781 58.68789063 -29.15039062 59.33203125 C-33.0238185 62.96831048 -36.81378693 66.66505837 -40.51733398 70.47460938 C-42.0625 71.9375 -42.0625 71.9375 -45.0625 73.9375 C-44.60481412 82.53717688 -43.89761924 90.92325227 -42.46484375 99.42578125 C-41.94727509 103.94320089 -41.98583863 108.39630766 -42.0625 112.9375 C-42.79138428 112.9468457 -43.52026855 112.95619141 -44.27124023 112.96582031 C-82.34020666 113.5774663 -103.11154116 124.30701258 -130.26611328 150.23828125 C-132.7207068 152.56010388 -135.22799624 154.81405682 -137.75 157.0625 C-138.51441406 157.75859375 -139.27882813 158.4546875 -140.06640625 159.171875 C-141.71066964 160.62629194 -143.43975973 161.98421739 -145.1875 163.3125 C-148.25026635 167.60037289 -147.44848724 171.8387331 -147.0625 176.9375 C-146.43029643 185.85972774 -146.43029643 185.85972774 -146.19140625 189.81201172 C-146.10094516 191.30359175 -146.00402832 192.79478758 -145.90234375 194.28564453 C-145.75072547 196.71105112 -145.65140848 199.13406359 -145.5625 201.5625 C-145.50771484 202.32054932 -145.45292969 203.07859863 -145.39648438 203.85961914 C-145.32288798 206.90126266 -145.41597633 209.22407206 -147.51342773 211.53857422 C-151.18321628 214.28662333 -154.49262881 215.99857328 -159.16967773 215.66796875 C-165.97261911 213.04261075 -170.27998103 200.15924032 -173.4375 194.0625 C-173.98277344 193.03125 -174.52804688 192 -175.08984375 190.9375 C-175.60417969 189.95007813 -176.11851562 188.96265625 -176.6484375 187.9453125 C-177.1129834 187.05473145 -177.5775293 186.16415039 -178.05615234 185.24658203 C-179.0625 182.9375 -179.0625 182.9375 -179.0625 179.9375 C-180.25640875 180.92983974 -181.44216913 181.93198154 -182.625 182.9375 C-183.28628906 183.494375 -183.94757813 184.05125 -184.62890625 184.625 C-186.64367649 186.53951683 -188.39824128 188.45477113 -190.19726562 190.56298828 C-194.05316856 194.99349819 -198.15553366 199.12376452 -202.33984375 203.2421875 C-203.92136136 204.81105942 -205.5027372 206.38007426 -207.08398438 207.94921875 C-209.5415712 210.38205078 -212.00074417 212.81323407 -214.46264648 215.24169922 C-233.80324198 232.57394422 -233.80324198 232.57394422 -241.63208008 256.14428711 C-241.62974365 256.98354736 -241.62740723 257.82280762 -241.625 258.6875 C-241.62330811 259.56349854 -241.62161621 260.43949707 -241.61987305 261.34204102 C-241.36802855 270.47161471 -238.41690096 277.01039643 -232.5 283.9375 C-231.695625 284.5975 -230.89125 285.2575 -230.0625 285.9375 C-229.340625 286.618125 -228.61875 287.29875 -227.875 288 C-216.62663765 295.74887184 -204.25599211 296.11865436 -191.1875 293.75 C-162.21998276 288.03538973 -138.36470881 269.82653285 -116.0859375 251.43359375 C-114.0625 249.9375 -114.0625 249.9375 -111.0625 248.9375 C-111.63871094 247.93976563 -112.21492187 246.94203125 -112.80859375 245.9140625 C-123.69942055 226.81794964 -129.73919921 207.85450536 -125.0625 185.625 C-119.40903572 167.13235983 -107.55723524 150.41182555 -90.5 140.86328125 C-72.81527172 131.52570662 -53.29260793 128.74321613 -33.9453125 134.55078125 C-17.20286517 140.2004093 -1.46773797 151.69829128 6.75 167.5390625 C7.141875 168.33054687 7.53375 169.12203125 7.9375 169.9375 C8.370625 170.77023437 8.80375 171.60296875 9.25 172.4609375 C14.61697382 183.35461651 16.18668842 193.94151189 16.25 205.9375 C16.25555908 206.83388184 16.26111816 207.73026367 16.2668457 208.65380859 C16.2134362 213.50813915 15.72996912 217.37142078 13.9375 221.9375 C13.21732843 224.3923914 12.50919534 226.85084314 11.8125 229.3125 C11.45929688 230.55773437 11.10609375 231.80296875 10.7421875 233.0859375 C10.47664063 234.02695312 10.21109375 234.96796875 9.9375 235.9375 C9.2775 235.9375 8.6175 235.9375 7.9375 235.9375 C7.56625 237.24267578 7.56625 237.24267578 7.1875 238.57421875 C1.88778796 252.83375645 -11.8940091 263.37035649 -25.0625 269.9375 C-42.58180856 277.7022905 -62.01136963 278.22026618 -80.0625 271.9375 C-83.33474719 270.43413205 -86.44650044 268.84093974 -89.546875 267.01171875 C-92.67095454 265.67767857 -93.89152941 265.76379704 -97.0625 266.9375 C-99.7318555 268.75564788 -99.7318555 268.75564788 -102.5 271.125 C-132.27873905 294.89122825 -172.56048369 318.22589861 -212.0625 313.9375 C-221.84387025 312.27573154 -231.05834072 308.88176534 -239.0625 302.9375 C-239.743125 302.43734375 -240.42375 301.9371875 -241.125 301.421875 C-252.53511603 292.24029726 -259.72441087 280.08764887 -261.32421875 265.56103516 C-262.46519821 249.67289621 -259.01024797 237.466756 -248.74609375 225.16015625 C-244.34963651 220.12857678 -244.34963651 220.12857678 -242.0625 217.9375 C-241.4025 217.9375 -240.7425 217.9375 -240.0625 217.9375 C-239.82427521 217.37395813 -239.58605042 216.81041626 -239.34060669 216.22979736 C-237.77873164 213.42855856 -235.88802056 211.52353684 -233.61279297 209.26074219 C-232.69198944 208.34008972 -231.77118591 207.41943726 -230.82247925 206.47088623 C-229.81665535 205.4752747 -228.8107222 204.47977352 -227.8046875 203.484375 C-226.77577851 202.45919807 -225.74731163 201.43357725 -224.7192688 200.40753174 C-222.01768419 197.71356836 -219.31014659 195.02566632 -216.60131836 192.33898926 C-213.83605511 189.59421696 -211.07647367 186.84374528 -208.31640625 184.09375 C-202.90397726 178.70274427 -197.48524562 173.31813036 -192.0625 167.9375 C-195.03222077 166.3717666 -198.00240193 164.80690845 -200.97265625 163.2421875 C-201.79979126 162.80608154 -202.62692627 162.36997559 -203.47912598 161.9206543 C-209.83821758 158.57148108 -216.20619368 155.23874157 -222.61706543 151.98950195 C-229.64592636 148.3271473 -229.64592636 148.3271473 -232.0625 144.9375 C-232.08931386 141.55895381 -231.27409206 140.19587408 -229.13671875 137.5859375 C-228.34910156 136.83570313 -227.56148437 136.08546875 -226.75 135.3125 C-225.97011719 134.55710937 -225.19023437 133.80171875 -224.38671875 133.0234375 C-223.61972656 132.33507812 -222.85273438 131.64671875 -222.0625 130.9375 C-221.49144531 130.33164062 -220.92039063 129.72578125 -220.33203125 129.1015625 C-212.87094494 125.27470584 -198.14525927 130.94948164 -189.96899414 132.57983398 C-187.7666222 133.01707832 -185.5615815 133.43757005 -183.35546875 133.85546875 C-182.68251266 133.99389694 -182.00955658 134.13232513 -181.31620789 134.27494812 C-178.46593273 134.80338307 -176.47214734 135.08421585 -173.71142578 134.09545898 C-168.4471925 130.39864843 -164.31828087 125.14736765 -160.14453125 120.3046875 C-157.50203911 117.30027805 -154.78419193 114.37006855 -152.0625 111.4375 C-147.64654033 106.67309139 -143.2879294 101.87280154 -139.0625 96.9375 C-138.56878906 96.37289062 -138.07507813 95.80828125 -137.56640625 95.2265625 C-135.47251711 92.79456662 -134.08886473 91.01659419 -133.0625 87.9375 C-133.89918213 87.68403809 -134.73586426 87.43057617 -135.59790039 87.16943359 C-139.40602995 85.81534849 -142.92217194 84.0919033 -146.49609375 82.2265625 C-147.20212234 81.86240234 -147.90815094 81.49824219 -148.63557434 81.12304688 C-150.92590101 79.94036867 -153.21297579 78.75154994 -155.5 77.5625 C-157.08999525 76.73973524 -158.68016582 75.91730918 -160.27050781 75.09521484 C-164.87095189 72.71528607 -169.46722995 70.32740009 -174.0625 67.9375 C-175.22346191 67.33421875 -176.38442383 66.7309375 -177.58056641 66.109375 C-182.28161948 63.66503505 -186.97907267 61.21404756 -191.671875 58.75390625 C-195.5483227 56.72314692 -199.43543688 54.71429162 -203.328125 52.71484375 C-204.3706543 52.17714355 -205.41318359 51.63944336 -206.48730469 51.08544922 C-208.47009641 50.06320013 -210.45497592 49.04498557 -212.44238281 48.03173828 C-217.64634657 45.34174406 -222.38965375 42.47422841 -227.0625 38.9375 C-226.83290571 33.41332233 -225.63277349 30.82441397 -221.80664062 27.10546875 C-221.25169922 26.59628906 -220.69675781 26.08710938 -220.125 25.5625 C-219.57392578 25.03011719 -219.02285156 24.49773437 -218.45507812 23.94921875 C-214.26523366 19.9477391 -212.2931376 18.69883069 -206.45782471 18.77920532 C-201.88748327 19.08123566 -197.44312239 20.04075399 -192.9609375 20.94921875 C-191.89940964 21.15764404 -190.83788177 21.36606934 -189.7441864 21.58081055 C-187.4794973 22.02585161 -185.21542619 22.47404721 -182.95193481 22.92514038 C-177.04026266 24.10238248 -171.12376451 25.25475649 -165.20703125 26.40625 C-164.04890427 26.63197189 -162.89077728 26.85769379 -161.69755554 27.09025574 C-152.07267329 28.95671355 -142.43360646 30.62650239 -132.75 32.15917969 C-125.86296893 33.26276896 -119.01775631 34.50855258 -112.17578125 35.859375 C-111.32583084 36.02593094 -110.47588043 36.19248688 -109.60017395 36.36408997 C-105.40963169 37.18605311 -101.22255721 38.02133675 -97.03930664 38.87963867 C-95.52371049 39.17943151 -94.00800914 39.47869313 -92.4921875 39.77734375 C-91.79889847 39.92488098 -91.10560944 40.07241821 -90.39131165 40.22442627 C-87.54021697 40.77426768 -85.50468157 41.09047392 -82.72802734 40.12988281 C-80.50634527 38.53933822 -78.70151878 36.72395667 -76.8125 34.75 C-74.04406947 31.91404678 -71.27307481 29.18735568 -68.25 26.625 C-64.67344667 23.56244236 -61.36914514 20.28423192 -58.0625 16.9375 C-53.55969178 12.39130134 -48.99696999 8.01947009 -44.0625 3.9375 C-43.34578125 3.32003906 -42.6290625 2.70257813 -41.890625 2.06640625 C-29.17515538 -8.47866424 -13.74736665 -9.2584306 0 0 Z " fill="#0179B8" transform="translate(280.0625,274.0625)"/>
<path d="M0 0 C49.41132075 0 49.41132075 0 64.171875 14.0703125 C68.86223788 18.98321085 71.53506891 23.36543608 73 30 C73.27070312 31.12535156 73.27070312 31.12535156 73.546875 32.2734375 C75.45339352 43.74541963 74.51952263 56.23779226 70 67 C68.515 67.495 68.515 67.495 67 68 C66.32558869 69.6635479 65.6599679 71.33066942 65 73 C57.18674846 81.89094141 48.34043496 85.47990334 37 88 C24.79 88 12.58 88 0 88 C0 58.96 0 29.92 0 0 Z " fill="#112B61" transform="translate(515,396)"/>
<path d="M0 0 C43.05405405 0 43.05405405 0 52.4375 6.3125 C57.84148129 11.98009014 60.32885032 17.84437267 60.21484375 25.66015625 C59.74716207 30.75363494 57.55628145 34.50165307 54.25 38.25 C53.13625 39.61125 53.13625 39.61125 52 41 C53.24023608 44.72070823 54.95730148 45.62521091 58 48 C62.27731567 54.4159735 61.94409569 63.88109583 60.57421875 71.30859375 C58.7819567 76.94927124 55.52802245 80.26258465 51 84 C41 88 41 88 0 88 C0 58.96 0 29.92 0 0 Z " fill="#0F2A60" transform="translate(358,396)"/>
<path d="M0 0 C45.60726073 0 45.60726073 0 54.19140625 6.3671875 C54.97386719 7.19476563 55.75632812 8.02234375 56.5625 8.875 C57.36816406 9.69742187 58.17382812 10.51984375 59.00390625 11.3671875 C62.92871078 16.54393554 63.32180893 21.61233043 63.25 27.9375 C63.26160156 28.95360352 63.26160156 28.95360352 63.2734375 29.99023438 C63.25530014 34.71954982 62.45941364 38.5580545 61 43 C60.34 43 59.68 43 59 43 C58.76539063 43.75667969 58.53078125 44.51335937 58.2890625 45.29296875 C56.76490328 48.49370311 55.36493058 49.47582836 52.375 51.3125 C51.55773437 51.82425781 50.74046875 52.33601563 49.8984375 52.86328125 C49.27195312 53.23839844 48.64546875 53.61351562 48 54 C49.94237198 63.28253454 56.90505108 71.67652669 61.97851562 79.50976562 C62.49736328 80.31994141 63.01621094 81.13011719 63.55078125 81.96484375 C64.02169189 82.6930835 64.49260254 83.42132324 64.9777832 84.17163086 C66 86 66 86 66 88 C63.11987347 88.24453905 60.260522 88.42157916 57.375 88.5625 C56.56675781 88.63791016 55.75851562 88.71332031 54.92578125 88.79101562 C52.36320381 88.88476846 50.44435858 88.79140665 48 88 C45.26932554 85.38714652 43.68795631 82.35479021 42 79 C41.55188965 78.11127197 41.1037793 77.22254395 40.64208984 76.30688477 C39.96847412 74.94841431 39.96847412 74.94841431 39.28125 73.5625 C38.82234375 72.64855469 38.3634375 71.73460937 37.890625 70.79296875 C36.95709445 68.91804082 36.06144177 67.02381164 35.203125 65.11328125 C33.67337471 61.90873339 33.67337471 61.90873339 30 58 C23.07 57.505 23.07 57.505 16 57 C16 67.23 16 77.46 16 88 C10.72 88 5.44 88 0 88 C0 58.96 0 29.92 0 0 Z " fill="#0C275F" transform="translate(436,281)"/>
<path d="M0 0 C6.90639685 5.10620489 12.4779881 11.19756649 15.4453125 19.38671875 C15.4453125 20.70671875 15.4453125 22.02671875 15.4453125 23.38671875 C12.52642102 23.54887939 9.61652025 23.66763077 6.6953125 23.76171875 C5.8703125 23.81199219 5.0453125 23.86226563 4.1953125 23.9140625 C1.80884483 23.97179962 -0.23216739 23.94742451 -2.5546875 23.38671875 C-4.953125 20.53515625 -4.953125 20.53515625 -6.5546875 17.38671875 C-11.97438775 12.20265764 -16.4028633 10.34481554 -23.8046875 9.94921875 C-30.74575631 10.10976048 -36.43337756 12.29833402 -41.40625 17.21875 C-42.99374988 19.2011698 -44.29847914 21.18109878 -45.5546875 23.38671875 C-45.89371094 23.969375 -46.23273437 24.55203125 -46.58203125 25.15234375 C-50.3084465 33.05165719 -49.88879062 43.74619195 -46.9921875 51.82421875 C-43.75058621 58.66001655 -38.91762663 64.70828949 -31.84765625 67.7578125 C-24.13087034 69.87434151 -16.71797761 69.05491514 -9.75390625 65.15234375 C-5.050428 61.37619425 -2.43402169 56.02472133 -0.5546875 50.38671875 C-8.1446875 50.38671875 -15.7346875 50.38671875 -23.5546875 50.38671875 C-23.65234375 39.546875 -23.65234375 39.546875 -23.5546875 36.38671875 C-22.5546875 35.38671875 -22.5546875 35.38671875 -18.76928711 35.27319336 C-17.08186021 35.27335253 -15.39442845 35.27904958 -13.70703125 35.2890625 C-12.37739098 35.29118492 -12.37739098 35.29118492 -11.02088928 35.29335022 C-8.17795496 35.2989666 -5.33509819 35.31152184 -2.4921875 35.32421875 C-0.56966259 35.32923164 1.35286354 35.33379491 3.27539062 35.33789062 C7.99872799 35.34894134 12.72200708 35.36621692 17.4453125 35.38671875 C17.4723328 38.13678483 17.49216133 40.88658421 17.5078125 43.63671875 C17.51619141 44.41402344 17.52457031 45.19132812 17.53320312 45.9921875 C17.53642578 46.74628906 17.53964844 47.50039063 17.54296875 48.27734375 C17.54820557 48.96860352 17.55344238 49.65986328 17.55883789 50.37207031 C17.43969221 52.48645773 17.02149487 54.3531339 16.4453125 56.38671875 C15.7853125 56.38671875 15.1253125 56.38671875 14.4453125 56.38671875 C14.4453125 57.33546875 14.4453125 58.28421875 14.4453125 59.26171875 C13.36916364 66.84088145 6.03587016 73.50047023 0.3046875 78.140625 C-9.98739065 85.03804712 -21.7688566 85.66034043 -33.734375 83.92578125 C-40.23958559 82.35937077 -45.28661159 79.45208299 -50.5546875 75.38671875 C-51.39 74.773125 -52.2253125 74.15953125 -53.0859375 73.52734375 C-60.05658428 67.48317534 -65.13324511 57.48395007 -66.5546875 48.38671875 C-67.29904912 37.92231995 -67.51000931 27.88985236 -62.5546875 18.38671875 C-62.2040625 17.68675781 -61.8534375 16.98679687 -61.4921875 16.265625 C-55.64407706 5.84867828 -46.14841799 -1.85430789 -34.63012695 -5.16674805 C-23.20583448 -7.62469781 -9.89033476 -6.24573128 0 0 Z " fill="#0F295F" transform="translate(665.5546875,400.61328125)"/>
<path d="M0 0 C46.02105263 0 46.02105263 0 55.2734375 9.04296875 C61.47717638 16.07480852 62.76643808 21.93117178 62.41796875 31.33984375 C61.4940634 39.43049156 58.35196158 46.71118453 52 52 C45.84263937 55.7509238 40.25980135 58.14182806 33.015625 58.09765625 C32.17290039 58.09515869 31.33017578 58.09266113 30.46191406 58.09008789 C29.40198242 58.08098389 28.34205078 58.07187988 27.25 58.0625 C23.8675 58.041875 20.485 58.02125 17 58 C17 67.9 17 77.8 17 88 C11.39 88 5.78 88 0 88 C0 58.96 0 29.92 0 0 Z " fill="#102A60" transform="translate(547,281)"/>
<path d="M0 0 C5.28 0 10.56 0 16 0 C16.0093457 1.87703613 16.01869141 3.75407227 16.02832031 5.68798828 C16.06389921 11.90275415 16.11772967 18.11715435 16.18390274 24.33166695 C16.22334437 28.09808166 16.25554874 31.86426376 16.27099609 35.63085938 C16.28618507 39.26863795 16.32066881 42.90577688 16.36830902 46.54327011 C16.38310002 47.92821556 16.39103971 49.31325235 16.39188385 50.69827652 C16.15055169 60.72921665 16.15055169 60.72921665 21 69 C26.2841373 72.9292303 31.53669078 73.43088728 38 73 C41.18187444 72.3364564 44.11780451 71.521656 47 70 C48.59688639 67.51686936 48.59688639 67.51686936 49 65 C49.33 64.67 49.66 64.34 50 64 C50.12369325 62.0064857 50.1779639 60.0086353 50.20532227 58.01147461 C50.22526749 56.73022202 50.24521271 55.44896942 50.26576233 54.12889099 C50.28274797 52.72004316 50.29962673 51.31119405 50.31640625 49.90234375 C50.33696915 48.46887095 50.35796544 47.03540431 50.37937927 45.60194397 C50.43466859 41.8224688 50.48404745 38.0429383 50.53222656 34.2633667 C50.58239165 30.40925145 50.63810371 26.55521691 50.69335938 22.70117188 C50.80102482 15.13418091 50.90193862 7.56712263 51 0 C56.61 0 62.22 0 68 0 C68.09061019 8.46717411 68.16389303 16.93396706 68.20724869 25.40149689 C68.22806427 29.33392955 68.25627007 33.26601139 68.30175781 37.19824219 C68.345433 40.99785274 68.36918239 44.79712727 68.37950897 48.5969696 C68.38686174 50.04177637 68.40121968 51.48656614 68.42292023 52.93122864 C68.60098164 65.28403149 66.27267113 72.58950395 57.58984375 81.72265625 C49.30685179 89.00619217 39.81225604 89.9127261 29.21875 89.4140625 C20.08204099 88.6904028 13.05444911 84.85825177 7 78 C2.15457384 71.14884188 -0.13006166 66.07132267 -0.11352539 57.67089844 C-0.11344986 56.38987244 -0.11337433 55.10884644 -0.11329651 53.78900146 C-0.10819026 52.39579225 -0.10297427 51.00258343 -0.09765625 49.609375 C-0.09579032 48.18019663 -0.09436724 46.75101762 -0.09336853 45.32183838 C-0.08955715 41.56699852 -0.07973867 37.81219757 -0.06866455 34.05737305 C-0.05842075 30.22314988 -0.05386455 26.38892041 -0.04882812 22.5546875 C-0.03811513 15.03643857 -0.02052953 7.5182297 0 0 Z " fill="#102960" transform="translate(432,396)"/>
<path d="M0 0 C39.59729064 0 39.59729064 0 48.4921875 8.3984375 C54.0828637 14.33672051 54.37562297 19.14186712 54.20483398 27.02124023 C54.14999134 28.68132512 54.07687462 30.3407894 54 32 C53.34 32 52.68 32 52 32 C51.9071875 33.051875 51.9071875 33.051875 51.8125 34.125 C50.70291121 38.05123725 48.87158301 40.12841699 46 43 C42.6875 44.375 42.6875 44.375 40 45 C43.06722885 51.38013379 46.56203591 57.39823822 50.25 63.4375 C51.34049628 65.22667471 52.42914727 67.01697592 53.515625 68.80859375 C53.99290039 69.59032959 54.47017578 70.37206543 54.96191406 71.17749023 C56 73 56 73 56 74 C50.56271198 75.52526521 45.23642696 76.64454444 40 74 C34.66525846 68.18628029 26 56.16141573 26 48 C22.37 48 18.74 48 15 48 C15 56.91 15 65.82 15 75 C10.05 75 5.1 75 0 75 C0 50.25 0 25.5 0 0 Z " fill="#112A60" transform="translate(420,510)"/>
<path d="M0 0 C17.16 0 34.32 0 52 0 C52 5.28 52 10.56 52 16 C40.45 16 28.9 16 17 16 C17 22.6 17 29.2 17 36 C19.22621094 35.98839844 21.45242188 35.97679687 23.74609375 35.96484375 C25.89396014 35.95705278 28.04182497 35.95097625 30.18969727 35.94506836 C31.68644918 35.94002879 33.18319616 35.93319713 34.67993164 35.92456055 C36.82699807 35.91247841 38.97399962 35.90676809 41.12109375 35.90234375 C43.06133423 35.89448853 43.06133423 35.89448853 45.04077148 35.88647461 C48 36 48 36 49 37 C49.09909302 39.33160055 49.12970504 41.66629942 49.125 44 C49.12886719 45.918125 49.12886719 45.918125 49.1328125 47.875 C49 51 49 51 48 52 C45.70848583 52.08790975 43.41427476 52.10694038 41.12109375 52.09765625 C40.09110008 52.09553383 40.09110008 52.09553383 39.04029846 52.09336853 C36.83932199 52.08775479 34.63844591 52.07520007 32.4375 52.0625 C30.94856917 52.05748676 29.45963676 52.05292355 27.97070312 52.04882812 C24.31373195 52.03863021 20.65697883 52.01905779 17 52 C17 58.6 17 65.2 17 72 C29.21 72 41.42 72 54 72 C54 77.28 54 82.56 54 88 C36.18 88 18.36 88 0 88 C0 58.96 0 29.92 0 0 Z " fill="#152E62" transform="translate(697,396)"/>
<path d="M0 0 C37.4 0 37.4 0 46 7 C50.70495287 11.86222149 53.28569639 15.85577361 53.375 22.6875 C53.2385182 30.68143405 50.61035555 37.21963368 45 43 C42.25 44.8125 42.25 44.8125 40 46 C40.64705847 49.33425426 41.90219797 51.74789909 43.6875 54.625 C44.22117187 55.49640625 44.75484375 56.3678125 45.3046875 57.265625 C45.86414063 58.16796875 46.42359375 59.0703125 47 60 C48.10898625 61.7886875 49.21334941 63.5802517 50.3125 65.375 C50.80363281 66.16648437 51.29476562 66.95796875 51.80078125 67.7734375 C52.93263582 69.87492645 53.54747407 71.66816051 54 74 C48.84974659 74.58972367 44.1354849 74.8441893 39 74 C35.78240536 71.27883424 34.58179175 67.84489741 33 64 C31.84429284 61.43790925 30.59438537 58.93831672 29.3125 56.4375 C29.04574463 55.81794434 28.77898926 55.19838867 28.50415039 54.56005859 C27.5464967 52.47845663 27.5464967 52.47845663 25 50 C21.37 49.67 17.74 49.34 14 49 C14 57.58 14 66.16 14 75 C9.38 75 4.76 75 0 75 C0 50.25 0 25.5 0 0 Z " fill="#102A5F" transform="translate(763,510)"/>
<path d="M0 0 C5.28 0 10.56 0 16 0 C20.4212605 11.30168364 24.76288261 22.62796655 29 34 C29.43441406 35.15628906 29.86882813 36.31257812 30.31640625 37.50390625 C32.53319103 43.41628763 34.73721494 49.33331459 36.92602539 55.25610352 C37.43723834 56.63665712 37.95028507 58.01653297 38.46508789 59.39575195 C39.21439104 61.40409314 39.95742975 63.41465456 40.69921875 65.42578125 C41.36183716 67.21109253 41.36183716 67.21109253 42.0378418 69.0324707 C43 72 43 72 43 75 C38.38 75 33.76 75 29 75 C24 63.5 24 63.5 24 59 C8.655 59.495 8.655 59.495 -7 60 C-8.65 64.62 -10.3 69.24 -12 74 C-16.62 74 -21.24 74 -26 74 C-25.40441246 67.99635562 -23.67404222 62.78750784 -21.578125 57.1484375 C-21.2362616 56.21254791 -20.89439819 55.27665833 -20.54217529 54.31240845 C-19.4511771 51.3308823 -18.35063182 48.35298144 -17.25 45.375 C-16.5254367 43.39735696 -15.80147276 41.41949422 -15.078125 39.44140625 C-10.23434394 26.22036643 -5.26319678 13.06052535 0 0 Z " fill="#0F295F" transform="translate(510,510)"/>
<path d="M0 0 C1.1859375 0.00257813 2.371875 0.00515625 3.59375 0.0078125 C4.7796875 0.00523437 5.965625 0.00265625 7.1875 0 C10.09375 0.1328125 10.09375 0.1328125 11.09375 1.1328125 C11.18158542 3.35136514 11.20069609 5.57269746 11.19140625 7.79296875 C11.1899913 8.45743515 11.18857635 9.12190155 11.18711853 9.8065033 C11.18150518 11.93615149 11.16895054 14.06569589 11.15625 16.1953125 C11.15123671 17.63606619 11.14667351 19.07682153 11.14257812 20.51757812 C11.13153145 24.05602352 11.11425792 27.59440789 11.09375 31.1328125 C14.07958979 28.21530947 16.86849173 25.30898326 19.3984375 21.98828125 C19.98238281 21.22837891 20.56632813 20.46847656 21.16796875 19.68554688 C21.76222656 18.90501953 22.35648438 18.12449219 22.96875 17.3203125 C24.73768345 15.00126019 26.51265245 12.68947725 28.31713867 10.39794922 C29.50505778 8.88338092 30.6668585 7.34797248 31.80200195 5.79345703 C35.91551933 0.4916424 35.91551933 0.4916424 39.14355469 -0.49145508 C41.33088877 -0.6523768 43.34904744 -0.57482617 45.53125 -0.3671875 C46.62856445 -0.31304687 46.62856445 -0.31304687 47.74804688 -0.2578125 C49.53226157 -0.16452023 51.31373477 -0.02104236 53.09375 0.1328125 C51.40155592 4.0525841 48.80572566 7.20504147 46.15625 10.5078125 C45.16920718 11.75125156 44.18223002 12.99474274 43.1953125 14.23828125 C42.68645508 14.87685059 42.17759766 15.51541992 41.65332031 16.17333984 C39.10113388 19.37995354 36.56580925 22.59976143 34.03125 25.8203125 C33.56662354 26.40796387 33.10199707 26.99561523 32.62329102 27.60107422 C28.64318588 32.01933462 28.64318588 32.01933462 27.12890625 37.4140625 C28.46484941 41.17850153 30.88319988 43.73146356 33.53125 46.6328125 C34.6277451 47.86996827 35.72144235 49.10960876 36.8125 50.3515625 C37.36292969 50.97804688 37.91335938 51.60453125 38.48046875 52.25 C41.77573509 56.0958072 44.79240281 60.15268357 47.83984375 64.1953125 C49.47389944 66.32496567 51.13012368 68.35331562 52.87890625 70.3828125 C55.09375 73.1328125 55.09375 73.1328125 55.09375 75.1328125 C42.17149576 77.19906127 42.17149576 77.19906127 37.28710938 73.91992188 C33.82928388 70.65898324 31.08171377 66.85674503 28.37939453 62.96289062 C26.55870741 60.37119471 24.54585812 57.95020493 22.53125 55.5078125 C20.8162004 53.34648118 19.16952541 51.25228014 17.69140625 48.921875 C15.91969281 46.57733698 15.91969281 46.57733698 11.09375 46.1328125 C11.09375 55.3728125 11.09375 64.6128125 11.09375 74.1328125 C6.14375 74.1328125 1.19375 74.1328125 -3.90625 74.1328125 C-3.92880226 64.63206614 -3.9471658 55.13133743 -3.95806217 45.63057041 C-3.96329069 41.21944246 -3.97038777 36.8083337 -3.98168945 32.3972168 C-3.99251944 28.14380135 -3.99852707 23.89040441 -4.00112724 19.63697624 C-4.00298129 18.01059617 -4.00660152 16.38421716 -4.01198006 14.75784492 C-4.01919198 12.48771057 -4.02024088 10.21765365 -4.01977539 7.94750977 C-4.021996 6.65289322 -4.02421661 5.35827667 -4.02650452 4.02442932 C-3.86648763 0.17669433 -3.86648763 0.17669433 0 0 Z " fill="#122C62" transform="translate(640.90625,509.8671875)"/>
<path d="M0 0 C0.77943466 0.00222061 1.55886932 0.00444122 2.36192322 0.00672913 C3.68317955 0.00684242 3.68317955 0.00684242 5.03112793 0.00695801 C5.98841293 0.01211929 6.94569794 0.01728058 7.93199158 0.02259827 C9.39480812 0.02472069 9.39480812 0.02472069 10.88717651 0.02688599 C14.01542675 0.03250319 17.14360656 0.04505859 20.27183533 0.05775452 C22.38706867 0.0627673 24.50230313 0.06733059 26.61753845 0.07142639 C31.8148314 0.08247821 37.0120714 0.09975436 42.20933533 0.12025452 C42.20933533 4.74025452 42.20933533 9.36025452 42.20933533 14.12025452 C32.30933533 14.12025452 22.40933533 14.12025452 12.20933533 14.12025452 C12.20933533 19.73025452 12.20933533 25.34025452 12.20933533 31.12025452 C21.11933533 31.12025452 30.02933533 31.12025452 39.20933533 31.12025452 C39.20933533 35.41025452 39.20933533 39.70025452 39.20933533 44.12025452 C29.96933533 44.12025452 20.72933533 44.12025452 11.20933533 44.12025452 C11.20933533 50.06025452 11.20933533 56.00025452 11.20933533 62.12025452 C22.09933533 62.12025452 32.98933533 62.12025452 44.20933533 62.12025452 C44.20933533 66.41025452 44.20933533 70.70025452 44.20933533 75.12025452 C28.69933533 75.12025452 13.18933533 75.12025452 -2.79066467 75.12025452 C-2.83077348 56.69248489 -2.83077348 56.69248489 -2.8394928 48.86439514 C-2.84548096 43.51355503 -2.85258055 38.16273197 -2.86610413 32.81190491 C-2.87693396 28.50013479 -2.88294171 24.18838293 -2.88554192 19.87660027 C-2.88739599 18.22789154 -2.89101627 16.57918386 -2.89639473 14.93048286 C-2.90360645 12.6292158 -2.90465556 10.32802512 -2.90419006 8.02674866 C-2.90641068 6.71436722 -2.90863129 5.40198578 -2.91091919 4.04983521 C-2.75226711 0.18483223 -2.75226711 0.18483223 0 0 Z " fill="#0A265E" transform="translate(706.7906646728516,509.87974548339844)"/>
<path d="M0 0 C6.04198736 4.2746033 10.15031088 9.95625476 13.421875 16.5625 C13.421875 17.5525 13.421875 18.5425 13.421875 19.5625 C10.8159861 19.69744246 8.21705389 19.79652299 5.609375 19.875 C4.87138672 19.91689453 4.13339844 19.95878906 3.37304688 20.00195312 C1.21484375 20.05078125 1.21484375 20.05078125 -2.578125 19.5625 C-4.37109375 17.21484375 -4.37109375 17.21484375 -5.578125 14.5625 C-7.2437952 12.99167971 -7.2437952 12.99167971 -9.078125 11.8125 C-9.6659375 11.40515625 -10.25375 10.9978125 -10.859375 10.578125 C-15.22442299 7.99877846 -19.67348909 7.92112454 -24.578125 8.5625 C-32.57238081 11.02319436 -36.70979338 15.2968882 -40.578125 22.5625 C-43.26240642 27.93106284 -42.33468036 37.36761971 -40.96484375 43.15234375 C-38.59203991 48.43104832 -34.24267451 52.25804501 -29.578125 55.5625 C-23.41162479 57.61800007 -16.04996436 57.64788284 -10.078125 54.9375 C-7.17092702 53.44564841 -6.49645298 52.41264309 -4.875 49.4375 C-2.578125 46.5625 -2.578125 46.5625 1.3125 45.9765625 C2.76678437 46.0162248 4.22049128 46.08749299 5.671875 46.1875 C6.41695312 46.21457031 7.16203125 46.24164062 7.9296875 46.26953125 C9.76166493 46.33999192 11.59214651 46.44761007 13.421875 46.5625 C12.35115358 54.37327548 6.27155654 60.44958254 0.3125 65.28125 C-7.88763288 70.83836484 -16.70910798 72.66678339 -26.4453125 71.1015625 C-37.32825553 68.7477453 -45.06674644 63.61077929 -51.578125 54.5625 C-57.67080093 44.21050654 -57.75937207 33.34233952 -56.578125 21.5625 C-53.80694043 11.51056484 -46.90046092 3.90054149 -38.015625 -1.3125 C-25.51053191 -7.63960843 -12.24463012 -6.82730891 0 0 Z " fill="#10295F" transform="translate(612.578125,514.4375)"/>
<path d="M0 0 C3.96 0 7.92 0 12 0 C12 3.3 12 6.6 12 10 C12.845625 10.061875 13.69125 10.12375 14.5625 10.1875 C20.1917943 11.51806047 23.6805925 14.43754375 27.375 18.8125 C29.3678655 22.72158233 29.69962934 25.64462549 30 30 C19.30305476 30.92126801 19.30305476 30.92126801 16.16015625 28.69921875 C14.875 27.0625 14.875 27.0625 13 24 C9.53114609 22.26557304 5.79263719 22.5357289 2 23 C-1.14849606 24.41670711 -1.14849606 24.41670711 -3 27 C-3.75 30 -3.75 30 -3 33 C0.16941733 37.19206183 3.1157913 37.68785906 8.1875 38.4375 C16.03948658 39.78347354 22.52341815 41.93061141 27.9375 48 C32.00574666 53.91744969 32.84816135 58.88849331 32 66 C30.09965832 72.71133328 25.54362583 77.01344836 20 81 C16.90767459 82.58052188 15.46227132 83 12 83 C12 85.97 12 88.94 12 92 C8.04 92 4.08 92 0 92 C0 89.03 0 86.06 0 83 C-1.2684375 82.9071875 -1.2684375 82.9071875 -2.5625 82.8125 C-8.54175671 81.39922114 -12.44291703 78.20232527 -15.9375 73.1875 C-18.38858248 68.98221142 -18.42758325 65.78893245 -18 61 C-14.27346875 60.65304709 -10.71330289 60.46261897 -7 61 C-4.5625 63.875 -4.5625 63.875 -3 67 C0.14124836 69.11981794 2.76828961 69.24388573 6.5 69.1875 C7.4384375 69.18105469 8.376875 69.17460937 9.34375 69.16796875 C11.75175589 69.01569779 13.75459228 68.88285349 16 68 C16.495 66.515 16.495 66.515 17 65 C17.66 65 18.32 65 19 65 C18.90847648 59.24666451 18.90847648 59.24666451 15.8125 54.6875 C11.42630173 52.25544333 6.27554653 51.7276871 1.4140625 50.765625 C-6.46532183 48.99862348 -11.41218766 45.65534619 -16 39 C-18.23120332 34.94326669 -18.52723888 31.59451023 -18 27 C-15.47045122 19.37451559 -11.12313991 13.84827952 -4 10 C-2.68 10 -1.36 10 0 10 C0 6.7 0 3.4 0 0 Z " fill="#EFF4F1" transform="translate(219,432)"/>
<path d="M0 0 C21.78 0 43.56 0 66 0 C66 5.28 66 10.56 66 16 C57.75 16 49.5 16 41 16 C41 39.76 41 63.52 41 88 C35.72 88 30.44 88 25 88 C25 64.24 25 40.48 25 16 C16.75 16 8.5 16 0 16 C0 10.72 0 5.44 0 0 Z " fill="#102B61" transform="translate(760,396)"/>
<path d="M0 0 C21.78 0 43.56 0 66 0 C66 4.95 66 9.9 66 15 C57.75 15 49.5 15 41 15 C41 39.09 41 63.18 41 88 C35.72 88 30.44 88 25 88 C25 63.91 25 39.82 25 15 C16.75 15 8.5 15 0 15 C0 10.05 0 5.1 0 0 Z " fill="#0D265E" transform="translate(358,281)"/>
<path d="M0 0 C25.93532338 0 25.93532338 0 32.98828125 5.5703125 C39.29260804 12.9718525 40.59928376 21.20147146 40.3515625 30.75 C39.50436942 38.58182938 36.79454048 45.60054183 31 51 C20.64405757 57.40786857 13.39486772 56 0 56 C0 37.52 0 19.04 0 0 Z " fill="#F5F4F2" transform="translate(532,412)"/>
<path d="M0 0 C18.81 0 37.62 0 57 0 C57 4.62 57 9.24 57 14 C50.07 14 43.14 14 36 14 C36 33.8 36 53.6 36 74 C31.05 74 26.1 74 21 74 C21 54.2 21 34.4 21 14 C14.07 14 7.14 14 0 14 C0 9.38 0 4.76 0 0 Z " fill="#1A3367" transform="translate(354,510)"/>
<path d="M0 0 C5.28 0 10.56 0 16 0 C16 29.04 16 58.08 16 88 C10.72 88 5.44 88 0 88 C0 58.96 0 29.92 0 0 Z " fill="#0C255D" transform="translate(515,281)"/>
<path d="M0 0 C3.34125 -0.061875 6.6825 -0.12375 10.125 -0.1875 C11.68758545 -0.22846802 11.68758545 -0.22846802 13.28173828 -0.27026367 C18.61315151 -0.31794798 22.4244937 -0.06240374 27 3 C30.05055526 6.37166634 31.27403455 9.02588404 31.5 13.5 C31.26581613 17.98726507 30.11061244 20.65010968 27 24 C21.12913717 27.23356117 16.16818846 27.3715191 9.5625 27.1875 C4.8290625 27.0946875 4.8290625 27.0946875 0 27 C0 18.09 0 9.18 0 0 Z " fill="#EFEFEE" transform="translate(452,296)"/>
<path d="M0 0 C4.7334375 -0.1546875 4.7334375 -0.1546875 9.5625 -0.3125 C11.0331189 -0.38078003 11.0331189 -0.38078003 12.53344727 -0.45043945 C19.00510241 -0.55214345 22.16250213 0.66897842 27 5 C29.09563136 9.19126273 28.41168737 14.43563998 28 19 C26.19722137 23.28159925 24.75006481 24.5672703 20.75 26.875 C14.20186 29.01189302 6.74935909 28.16873398 0 28 C0 18.76 0 9.52 0 0 Z " fill="#EFEFEF" transform="translate(564,296)"/>
<path d="M0 0 C1.06152786 0.20842529 2.12305573 0.41685059 3.2167511 0.6315918 C5.4814402 1.07663286 7.74551131 1.52482846 10.00900269 1.97592163 C15.92067484 3.15316373 21.83717299 4.30553774 27.75390625 5.45703125 C28.91203323 5.68275314 30.07016022 5.90847504 31.26338196 6.14103699 C40.8884728 8.00753525 50.52817383 9.67331042 60.2109375 11.2121582 C67.09371165 12.31853049 73.94198888 13.54871594 80.78515625 14.875 C81.63510666 15.0391893 82.48505707 15.2033786 83.36076355 15.37254333 C87.5502364 16.183705 91.73723773 17.00556607 95.92163086 17.8425293 C97.43728726 18.13876495 98.95299131 18.43475693 100.46875 18.73046875 C101.16203903 18.8728447 101.85532806 19.01522064 102.56962585 19.16191101 C105.95855866 19.81507908 108.61929676 20.22382394 111.8984375 18.98828125 C111.5684375 20.30828125 111.2384375 21.62828125 110.8984375 22.98828125 C94.46898955 20.33085068 78.07587679 17.51755218 61.7109375 14.48828125 C60.50907303 14.26600861 60.50907303 14.26600861 59.28292847 14.03924561 C51.72931691 12.6410249 44.17763433 11.23286594 36.62989807 9.80325317 C34.7133813 9.44050113 32.79651502 9.07959711 30.87963867 8.71875 C28.58735533 8.28666683 26.29579409 7.85072728 24.00512695 7.41015625 C22.99925537 7.22066406 21.99338379 7.03117187 20.95703125 6.8359375 C20.09392334 6.67101807 19.23081543 6.50609863 18.34155273 6.33618164 C15.87446487 5.9258044 15.87446487 5.9258044 13.26049805 5.99145508 C10.17741678 5.98731244 7.80308947 5.00454906 4.8984375 3.98828125 C2.44924812 3.40666547 -0.01012086 2.86674047 -2.4765625 2.36328125 C-4.34441406 1.97269531 -4.34441406 1.97269531 -6.25 1.57421875 C-13.19304134 0.25309172 -13.19304134 0.25309172 -19.84082031 1.94433594 C-21.52854782 3.26239961 -23.02717977 4.66000693 -24.5390625 6.17578125 C-25.06693359 6.65853516 -25.59480469 7.14128906 -26.13867188 7.63867188 C-29.20057325 10.56693442 -30.79707889 12.71770345 -31.1015625 16.98828125 C-25.69804422 20.48254234 -20.1977805 23.59751647 -14.45703125 26.5 C-13.64776688 26.91312943 -12.8385025 27.32625885 -12.00471497 27.75190735 C-9.4345563 29.06328521 -6.86196937 30.36980486 -4.2890625 31.67578125 C-0.92747795 33.38624315 2.43302946 35.09880869 5.79296875 36.8125 C6.62911209 37.23873657 7.46525543 37.66497314 8.32673645 38.10412598 C15.73444997 41.88803346 23.09530204 45.75797426 30.45043945 49.64282227 C36.81081776 53.00131778 43.19780359 56.30794183 49.5859375 59.61328125 C50.80015987 60.24213022 52.01435256 60.87103652 53.22851562 61.5 C56.11820201 62.99665032 59.00817338 64.49274703 61.8984375 65.98828125 C61.12849185 70.77544496 59.1832703 73.74791502 56.2109375 77.48828125 C55.57768555 78.32166016 55.57768555 78.32166016 54.93164062 79.171875 C51.94285057 83.00365713 48.720572 85.98877306 44.8984375 88.98828125 C44.2384375 88.65828125 43.5784375 88.32828125 42.8984375 87.98828125 C43.71828125 87.10785156 44.538125 86.22742188 45.3828125 85.3203125 C46.47144372 84.14721851 47.55998038 82.97403677 48.6484375 81.80078125 C49.18726563 81.22263672 49.72609375 80.64449219 50.28125 80.04882812 C56.0739158 74.14674732 56.0739158 74.14674732 59.8984375 66.98828125 C59.06175537 66.73481934 58.22507324 66.48135742 57.36303711 66.22021484 C53.55490755 64.86612974 50.03876556 63.14268455 46.46484375 61.27734375 C45.40580086 60.73110352 45.40580086 60.73110352 44.32536316 60.17382812 C42.03503649 58.99114992 39.74796171 57.80233119 37.4609375 56.61328125 C35.87094225 55.79051649 34.28077168 54.96809043 32.69042969 54.14599609 C28.08998561 51.76606732 23.49370755 49.37818134 18.8984375 46.98828125 C17.73747559 46.385 16.57651367 45.78171875 15.38037109 45.16015625 C10.67931802 42.7158163 5.98186483 40.26482881 1.2890625 37.8046875 C-2.5873852 35.77392817 -6.47449938 33.76507287 -10.3671875 31.765625 C-11.4097168 31.2279248 -12.45224609 30.69022461 -13.52636719 30.13623047 C-15.50915891 29.11398138 -17.49403842 28.09576682 -19.48144531 27.08251953 C-24.68540907 24.39252531 -29.42871625 21.52500966 -34.1015625 17.98828125 C-33.87196821 12.46410358 -32.67183599 9.87519522 -28.84570312 6.15625 C-28.29076172 5.64707031 -27.73582031 5.13789063 -27.1640625 4.61328125 C-26.61298828 4.08089844 -26.06191406 3.54851562 -25.49414062 3 C-17.69403534 -4.44943226 -9.82411145 -1.99118493 0 0 Z " fill="#1C4EC4" transform="translate(87.1015625,295.01171875)"/>
<path d="M0 0 C3.56331377 -0.10807017 7.1233422 -0.18735316 10.6875 -0.25 C12.19860352 -0.30027344 12.19860352 -0.30027344 13.74023438 -0.3515625 C21.22531572 -0.45037546 21.22531572 -0.45037546 25.14453125 1.828125 C28.09731453 5.28443553 28.33414999 8.52381104 28.29296875 12.99609375 C27.83259178 16.14507222 26.23099654 17.834621 24 20 C21.49502996 21.25248502 19.79146726 21.11374406 16.9921875 21.09765625 C16.00605469 21.09443359 15.01992188 21.09121094 14.00390625 21.08789062 C12.97136719 21.07951172 11.93882812 21.07113281 10.875 21.0625 C9.31458984 21.05573242 9.31458984 21.05573242 7.72265625 21.04882812 C5.14841313 21.03701967 2.57419947 21.01908385 0 21 C0 14.07 0 7.14 0 0 Z " fill="#F4F3F2" transform="translate(375,448)"/>
<path d="M0 0 C3.361875 -0.0825 6.72375 -0.165 10.1875 -0.25 C11.23832764 -0.28641602 12.28915527 -0.32283203 13.37182617 -0.36035156 C17.70724433 -0.41189935 20.30754134 -0.40661312 24.11328125 1.828125 C27.41408512 5.62780813 27.33594054 9.12886216 27 14 C25.57377413 17.69140814 24.44885077 18.76126177 20.9375 20.62890625 C16.63950827 22.38239336 12.64138301 22.33930844 8.0625 22.1875 C4.0715625 22.0946875 4.0715625 22.0946875 0 22 C0 14.74 0 7.48 0 0 Z " fill="#EBECEC" transform="translate(374,411)"/>
<path d="M0 0 C0.75603516 -0.02900391 1.51207031 -0.05800781 2.29101562 -0.08789062 C7.62011824 -0.14797591 10.5700784 0.80874349 14.8125 4.3125 C17.39894464 7.7219043 17.17753115 11.1511449 16.8125 15.3125 C15.11180423 19.13906549 13.65745265 20.76467779 9.8125 22.3125 C7.61425781 22.53955078 7.61425781 22.53955078 5.265625 22.5078125 C3.99912109 22.49814453 3.99912109 22.49814453 2.70703125 22.48828125 C1.83433594 22.47152344 0.96164062 22.45476563 0.0625 22.4375 C-1.26974609 22.42396484 -1.26974609 22.42396484 -2.62890625 22.41015625 C-4.81538058 22.38664577 -7.00130094 22.35378499 -9.1875 22.3125 C-9.21637814 18.83335059 -9.23425687 15.35423169 -9.25 11.875 C-9.25837891 10.88177734 -9.26675781 9.88855469 -9.27539062 8.86523438 C-9.27861328 7.92099609 -9.28183594 6.97675781 -9.28515625 6.00390625 C-9.29039307 5.12935791 -9.29562988 4.25480957 -9.30102539 3.35375977 C-9.0312175 -1.49756022 -3.75375992 0.04680499 0 0 Z " fill="#ECECEC" transform="translate(443.1875,522.6875)"/>
<path d="M0 0 C3.196875 -0.0825 6.39375 -0.165 9.6875 -0.25 C10.68612061 -0.28641602 11.68474121 -0.32283203 12.71362305 -0.36035156 C16.94112621 -0.41316873 19.37550398 -0.37042349 23.08203125 1.828125 C25.61006825 4.69083084 25.96902963 6.58190003 26.25 10.375 C25.9759367 14.34891784 25.58543867 15.99755509 23 19 C17.6627472 21.81014447 13.52688767 22.39862326 7.5625 22.1875 C5.066875 22.125625 2.57125 22.06375 0 22 C0 14.74 0 7.48 0 0 Z " fill="#ECECEC" transform="translate(776,524)"/>
<path d="M0 0 C0.77943466 0.00222061 1.55886932 0.00444122 2.36192322 0.00672913 C3.68317955 0.00684242 3.68317955 0.00684242 5.03112793 0.00695801 C5.98841293 0.01211929 6.94569794 0.01728058 7.93199158 0.02259827 C9.39480812 0.02472069 9.39480812 0.02472069 10.88717651 0.02688599 C14.01542675 0.03250319 17.14360656 0.04505859 20.27183533 0.05775452 C22.38706867 0.0627673 24.50230313 0.06733059 26.61753845 0.07142639 C31.8148314 0.08247821 37.0120714 0.09975436 42.20933533 0.12025452 C42.20933533 4.74025452 42.20933533 9.36025452 42.20933533 14.12025452 C32.30933533 14.12025452 22.40933533 14.12025452 12.20933533 14.12025452 C12.20933533 19.73025452 12.20933533 25.34025452 12.20933533 31.12025452 C21.11933533 31.12025452 30.02933533 31.12025452 39.20933533 31.12025452 C39.20933533 35.41025452 39.20933533 39.70025452 39.20933533 44.12025452 C29.96933533 44.12025452 20.72933533 44.12025452 11.20933533 44.12025452 C11.20933533 50.39025452 11.20933533 56.66025452 11.20933533 63.12025452 C10.87933533 63.12025452 10.54933533 63.12025452 10.20933533 63.12025452 C10.20933533 56.52025452 10.20933533 49.92025452 10.20933533 43.12025452 C19.11933533 43.12025452 28.02933533 43.12025452 37.20933533 43.12025452 C37.20933533 39.82025452 37.20933533 36.52025452 37.20933533 33.12025452 C36.43219177 33.13072815 35.65504822 33.14120178 34.85435486 33.1519928 C31.34771432 33.19345734 27.84112527 33.2195503 24.33433533 33.24525452 C23.11101501 33.26201233 21.8876947 33.27877014 20.62730408 33.29603577 C18.87740173 33.30570374 18.87740173 33.30570374 17.09214783 33.31556702 C16.01336365 33.32604065 14.93457947 33.33651428 13.82310486 33.3473053 C11.20933533 33.12025452 11.20933533 33.12025452 9.20933533 31.12025452 C8.96641541 29.25672913 8.96641541 29.25672913 8.97886658 27.02259827 C8.98080017 26.22144592 8.98273376 25.42029358 8.98472595 24.59486389 C8.99697205 23.7576178 9.00921814 22.9203717 9.02183533 22.05775452 C9.02247986 21.21664124 9.02312439 20.37552795 9.02378845 19.50892639 C9.06910349 13.26048636 9.06910349 13.26048636 10.20933533 12.12025452 C12.42788797 12.0324191 14.64922029 12.01330843 16.86949158 12.02259827 C17.86619118 12.02472069 17.86619118 12.02472069 18.88302612 12.02688599 C21.01267432 12.03249933 23.14221872 12.04505398 25.27183533 12.05775452 C26.71258902 12.0627678 28.15334436 12.06733101 29.59410095 12.07142639 C33.13254635 12.08247307 36.67093072 12.0997466 40.20933533 12.12025452 C40.20933533 8.82025452 40.20933533 5.52025452 40.20933533 2.12025452 C26.34933533 2.12025452 12.48933533 2.12025452 -1.79066467 2.12025452 C-1.79066467 25.88025452 -1.79066467 49.64025452 -1.79066467 74.12025452 C13.05933533 74.12025452 27.90933533 74.12025452 43.20933533 74.12025452 C43.20933533 70.16025452 43.20933533 66.20025452 43.20933533 62.12025452 C43.53933533 62.12025452 43.86933533 62.12025452 44.20933533 62.12025452 C44.20933533 66.41025452 44.20933533 70.70025452 44.20933533 75.12025452 C28.69933533 75.12025452 13.18933533 75.12025452 -2.79066467 75.12025452 C-2.83077348 56.69248489 -2.83077348 56.69248489 -2.8394928 48.86439514 C-2.84548096 43.51355503 -2.85258055 38.16273197 -2.86610413 32.81190491 C-2.87693396 28.50013479 -2.88294171 24.18838293 -2.88554192 19.87660027 C-2.88739599 18.22789154 -2.89101627 16.57918386 -2.89639473 14.93048286 C-2.90360645 12.6292158 -2.90465556 10.32802512 -2.90419006 8.02674866 C-2.90641068 6.71436722 -2.90863129 5.40198578 -2.91091919 4.04983521 C-2.75226711 0.18483223 -2.75226711 0.18483223 0 0 Z " fill="#3C4872" transform="translate(706.7906646728516,509.87974548339844)"/>
<path d="M0 0 C0 1.2375 0 2.475 0 3.75 C0.18959042 5.98588272 0.18959042 5.98588272 1 8 C2.84585045 9.31460569 4.69872527 10.02983487 6.796875 10.87890625 C11.616215 13.33130089 14.81851572 17.98163103 17.5 22.5625 C18.18204635 25.88747596 17.64779286 28.69625641 17 32 C12.71 32 8.42 32 4 32 C4 31.34 4 30.68 4 30 C7.96 30 11.92 30 16 30 C13.8933593 21.68431304 11.94119704 17.89557334 4.9375 12.75 C1.9625021 10.78651133 1.9625021 10.78651133 -2 10 C-2 6.7 -2 3.4 -2 0 C-5.96 0 -9.92 0 -14 0 C-14 3.3 -14 6.6 -14 10 C-15.051875 10.4125 -16.10375 10.825 -17.1875 11.25 C-23.88867394 14.20283117 -26.99201732 17.87772255 -30.046875 24.48046875 C-31.93222277 29.4642774 -31.5253214 33.25803803 -29.5 38.0625 C-26.40984787 43.59902257 -22.15758661 46.97754338 -16.12890625 48.9296875 C-14.08525846 49.43474186 -12.03404545 49.91011485 -9.9765625 50.35546875 C-7.23881244 50.94828864 -4.60610415 51.65247914 -1.9375 52.5 C-1.24527344 52.7165625 -0.55304688 52.933125 0.16015625 53.15625 C2.33379427 54.15307763 3.53116518 55.11149809 5 57 C5.64599009 62.08717196 5.64599009 62.08717196 5 65 C1.13843598 68.96318413 -1.83416004 70.17192492 -7.25 70.3125 C-12.29936701 70.26617553 -15.18321564 69.52318556 -19 66 C-19.26425781 65.3090625 -19.52851563 64.618125 -19.80078125 63.90625 C-20.87167724 61.70865969 -20.87167724 61.70865969 -23.6015625 61.390625 C-24.59929687 61.34421875 -25.59703125 61.2978125 -26.625 61.25 C-28.12933594 61.16492188 -28.12933594 61.16492188 -29.6640625 61.078125 C-30.43492187 61.05234375 -31.20578125 61.0265625 -32 61 C-30.73686051 68.95185358 -30.73686051 68.95185358 -27 76 C-30.01574271 74.96008872 -30.97991051 74.03085171 -32.75 71.3125 C-34.13220349 67.64966075 -34.23295137 64.88252283 -34 61 C-30.01155191 58.81278653 -26.6202706 58.66701102 -22.21484375 59.24609375 C-18.8410658 60.3944873 -17.29070601 62.55010371 -15.2890625 65.40625 C-13.99266023 67.30174984 -13.99266023 67.30174984 -11 68 C-5.17341188 68.33684816 -5.17341188 68.33684816 0 66 C0.33 65.34 0.66 64.68 1 64 C1.66 64 2.32 64 3 64 C3.0615942 60.58863524 3.0615942 60.58863524 2 57 C-2.35048529 54.16712586 -6.87481922 53.63811066 -11.9375 52.6875 C-20.53407622 50.94260515 -26.02799476 47.2667769 -31 40 C-33.83190862 35.19090427 -33.70688631 30.43418854 -33 25 C-30.7811094 18.64050104 -26.68843513 13.60224366 -21 10 C-18.0625 9.125 -18.0625 9.125 -16 9 C-16.020625 7.72125 -16.04125 6.4425 -16.0625 5.125 C-16.125 1.25 -16.125 1.25 -15 -1 C-9.66353134 -2.77882289 -5.04741524 -2.44723163 0 0 Z " fill="#14AB9F" transform="translate(233,432)"/>
<path d="M0 0 C0.97413361 2.57789015 1.11872567 3.6927713 0.109375 6.3046875 C-0.56351563 7.57699219 -0.56351563 7.57699219 -1.25 8.875 C-8.68472298 24.51069875 -9.09908992 42.57950413 -4 59 C-1.19222718 66.64696749 1.85082998 73.62918654 7 80 C6.75 82.3125 6.75 82.3125 6 84 C5.34 84 4.68 84 4 84 C3.505 85.485 3.505 85.485 3 87 C1.44140625 88.38671875 1.44140625 88.38671875 -0.4375 89.6875 C-1.05496094 90.12449219 -1.67242187 90.56148437 -2.30859375 91.01171875 C-4 92 -4 92 -6 92 C-6 92.66 -6 93.32 -6 94 C-7.88094719 95.63217676 -9.75976811 97.13603242 -11.75 98.625 C-12.33547607 99.0686792 -12.92095215 99.5123584 -13.52416992 99.96948242 C-19.19087993 104.22199131 -25.04643216 108.16094534 -31 112 C-31.64839844 112.43699219 -32.29679687 112.87398437 -32.96484375 113.32421875 C-39.90136547 117.89291249 -47.50809509 121.44222205 -55 125 C-55.62060303 125.297854 -56.24120605 125.59570801 -56.88061523 125.90258789 C-60.35367574 127.49387936 -63.11524407 128.36391181 -66.9375 128.1875 C-67.70964844 128.16042969 -68.48179688 128.13335938 -69.27734375 128.10546875 C-69.84582031 128.07066406 -70.41429688 128.03585937 -71 128 C-67.71001501 126.22356743 -64.36179545 125.09840672 -60.8125 123.9375 C-37.94854732 115.82601471 -18.53842402 100.78172216 -0.0234375 85.49609375 C2 84 2 84 5 83 C4.42378906 82.00226563 3.84757812 81.00453125 3.25390625 79.9765625 C-7.65145078 60.85497215 -13.73940578 41.81232431 -8.9375 19.5625 C-6.88140173 12.66558785 -3.40698286 6.30991894 0 0 Z " fill="#21AEA6" transform="translate(164,440)"/>
<path d="M0 0 C0.99 0.33 1.98 0.66 3 1 C1.56564079 2.4614226 0.12739414 3.91903049 -1.3125 5.375 C-2.51326172 6.59316406 -2.51326172 6.59316406 -3.73828125 7.8359375 C-6 10 -6 10 -9 12 C-8.54231412 20.59967688 -7.83511924 28.98575227 -6.40234375 37.48828125 C-5.88477509 42.00570089 -5.92333863 46.45880766 -6 51 C-7.09332642 51.01401855 -7.09332642 51.01401855 -8.20874023 51.02832031 C-46.30524005 51.64040868 -67.05081137 62.38621359 -94.22900391 88.32617188 C-97.73767703 91.64233715 -101.35689186 94.83251987 -105 98 C-105.33 97.01 -105.66 96.02 -106 95 C-105.0925 94.2575 -104.185 93.515 -103.25 92.75 C-101.2904194 91.12780002 -99.53053664 89.51749599 -97.75 87.6875 C-96 86 -96 86 -94 86 C-93.67 85.01 -93.34 84.02 -93 83 C-91.2578125 81.2109375 -91.2578125 81.2109375 -89.125 79.375 C-88.42632812 78.76398438 -87.72765625 78.15296875 -87.0078125 77.5234375 C-85 76 -85 76 -82 75 C-82 74.34 -82 73.68 -82 73 C-81.34 73 -80.68 73 -80 73 C-79.505 71.515 -79.505 71.515 -79 70 C-77.1796875 68.5703125 -77.1796875 68.5703125 -74.875 67.125 C-72.03549763 65.31682632 -69.29225602 63.48973339 -66.625 61.4375 C-49.33185461 48.98803653 -27.50152051 47.43284728 -7 48 C-7.20496094 47.26136719 -7.40992188 46.52273438 -7.62109375 45.76171875 C-9.20919915 39.78162808 -10.42440308 34.03784172 -10.78125 27.85546875 C-10.95672395 24.91864982 -10.95672395 24.91864982 -11.59375 21.73828125 C-12.91404428 13.37965348 -12.91404428 13.37965348 -10.12890625 9.17578125 C-7.85940132 6.86270182 -5.66994921 4.83529369 -3 3 C-2.34 3 -1.68 3 -1 3 C-0.67 2.01 -0.34 1.02 0 0 Z " fill="#1248C2" transform="translate(244,336)"/>
<path d="M0 0 C0.33 0 0.66 0 1 0 C1.495 6.93 1.495 6.93 2 14 C-6.25 14 -14.5 14 -23 14 C-23 37.43 -23 60.86 -23 85 C-27.95 85 -32.9 85 -38 85 C-38 61.9 -38 38.8 -38 15 C-37.67 15 -37.34 15 -37 15 C-37 37.77 -37 60.54 -37 84 C-33.04 84 -29.08 84 -25 84 C-25.00222061 83.1127272 -25.00444122 82.22545441 -25.00672913 81.31129456 C-25.02672961 72.96755343 -25.04197289 64.62382031 -25.05181217 56.28006077 C-25.05704061 51.99000085 -25.06413753 47.69996067 -25.07543945 43.40991211 C-25.08626975 39.273206 -25.09227714 35.13651892 -25.09487724 30.99979973 C-25.09673124 29.41807696 -25.10035136 27.83635529 -25.10573006 26.25464058 C-25.1129424 24.04677162 -25.11399086 21.83898227 -25.11352539 19.63110352 C-25.115746 18.37201675 -25.11796661 17.11292999 -25.12025452 15.81568909 C-25 13 -25 13 -24 12 C-22.21928754 11.91273777 -20.4351686 11.89300959 -18.65234375 11.90234375 C-17.57275391 11.90556641 -16.49316406 11.90878906 -15.38085938 11.91210938 C-13.67639648 11.92467773 -13.67639648 11.92467773 -11.9375 11.9375 C-10.22723633 11.94426758 -10.22723633 11.94426758 -8.48242188 11.95117188 C-5.65492582 11.9630024 -2.82745655 11.9809385 0 12 C0 8.04 0 4.08 0 0 Z " fill="#0D1D54" transform="translate(824,398)"/>
<path d="M0 0 C0.66 0 1.32 0 2 0 C3.12933393 3.01923048 4.25266631 6.04066107 5.375 9.0625 C5.69210937 9.91005859 6.00921875 10.75761719 6.3359375 11.63085938 C6.6453125 12.46552734 6.9546875 13.30019531 7.2734375 14.16015625 C7.55622559 14.91949463 7.83901367 15.67883301 8.13037109 16.46118164 C9.20633714 19.60238628 10.08782369 22.80738291 11 26 C4.4 26 -2.2 26 -9 26 C-6.50556932 17.13091313 -3.29501074 8.59475294 0 0 Z " fill="#EBECED" transform="translate(517,530)"/>
<path d="M0 0 C0.99 0.495 0.99 0.495 2 1 C-6.34711655 12.54210505 -6.34711655 12.54210505 -11.8515625 13.4921875 C-14.60861038 13.03389194 -17.22507148 12.38334669 -19.89892578 11.57470703 C-24.27774961 10.37696693 -28.78227709 9.72051449 -33.25 8.9375 C-34.17272705 8.76412109 -35.0954541 8.59074219 -36.04614258 8.41210938 C-37.83766684 8.07628905 -39.63174058 7.75375561 -41.42822266 7.44555664 C-43.11087993 7.15403874 -44.78851548 6.83141273 -46.45849609 6.47436523 C-50.91242575 5.67232196 -52.38174488 5.59631577 -56.3203125 8.16796875 C-57.28177483 9.14913318 -58.21684584 10.15679662 -59.125 11.1875 C-59.61742187 11.68314453 -60.10984375 12.17878906 -60.6171875 12.68945312 C-62.55987174 14.75491938 -63.94514269 16.24845489 -64.15625 19.140625 C-62.40799113 21.95201426 -60.26765827 22.96428904 -57.375 24.5625 C-56.78122559 24.89185547 -56.18745117 25.22121094 -55.57568359 25.56054688 C-45.93896859 30.79648739 -35.93206342 35.35870492 -26 40 C-26 40.66 -26 41.32 -26 42 C-32.16298884 41.07544442 -37.40020412 38.04166303 -42.90063477 35.27270508 C-44.7914103 34.32309198 -46.68911029 33.38856086 -48.58789062 32.45507812 C-65.93218628 23.83839395 -65.93218628 23.83839395 -67.77270508 18.94604492 C-68 17 -68 17 -66.8125 15.0703125 C-64.90094528 13.01868696 -62.97335208 10.99239988 -61 9 C-60.15308594 8.06607422 -60.15308594 8.06607422 -59.2890625 7.11328125 C-57.59424501 5.40652842 -56.08899042 4.19066402 -54 3 C-44.58335856 3.3802682 -35.14143488 5.80088107 -25.90649414 7.64233398 C-23.7041222 8.07957832 -21.4990815 8.50007005 -19.29296875 8.91796875 C-18.62001266 9.05639694 -17.94705658 9.19482513 -17.25370789 9.33744812 C-14.43189392 9.86060643 -12.41800584 10.14595704 -9.67797852 9.18920898 C-7.46099644 7.61799995 -5.63886446 5.82682661 -3.75 3.875 C-2.69039062 2.78832031 -2.69039062 2.78832031 -1.609375 1.6796875 C-1.07828125 1.12539063 -0.5471875 0.57109375 0 0 Z " fill="#1D50C3" transform="translate(116,399)"/>
<path d="M0 0 C0.495 0.99 0.495 0.99 1 2 C-1.59902964 6.1332076 -4.21536061 9.4036615 -7.80859375 12.7578125 C-8.72060547 13.63179688 -9.63261719 14.50578125 -10.57226562 15.40625 C-12.46869214 17.20572219 -14.37485756 18.994991 -16.29101562 20.7734375 C-26.57363261 30.70048057 -30.8264302 42.36045363 -31.25 56.5625 C-31.11770698 61.5102591 -30.19238199 66.20768769 -29 71 C-28.82855469 71.74121094 -28.65710938 72.48242188 -28.48046875 73.24609375 C-26.8026423 79.31874303 -23.52739442 83.7058903 -19.64453125 88.6171875 C-18 91 -18 91 -18 94 C-19.72851647 92.37316097 -21.37258716 90.72539843 -23 89 C-23.49242187 88.48824219 -23.98484375 87.97648438 -24.4921875 87.44921875 C-33.73029352 76.65547311 -35.28049491 61.78024183 -34.24365234 48.13574219 C-32.72314536 34.80769099 -24.43993246 24.0434553 -15 15 C-14.34 15 -13.68 15 -13 15 C-12.78601563 14.45859375 -12.57203125 13.9171875 -12.3515625 13.359375 C-10.51922057 10.1607203 -8.00203394 7.79035516 -5.375 5.25 C-4.859375 4.74339844 -4.34375 4.23679687 -3.8125 3.71484375 C-2.54616661 2.47196098 -1.2736856 1.23534724 0 0 Z " fill="#275AC9" transform="translate(53,477)"/>
<path d="M0 0 C3.3 0 6.6 0 10 0 C10 0.33 10 0.66 10 1 C7.36 1 4.72 1 2 1 C2 28.72 2 56.44 2 85 C6.29 85 10.58 85 15 85 C15 75.76 15 66.52 15 57 C15.33 57 15.66 57 16 57 C16 66.9 16 76.8 16 87 C10.72 87 5.44 87 0 87 C0 58.29 0 29.58 0 0 Z " fill="#192658" transform="translate(436,282)"/>
<path d="M0 0 C0.639375 0.639375 1.27875 1.27875 1.9375 1.9375 C1.9375 2.9275 1.9375 3.9175 1.9375 4.9375 C2.5975 4.9375 3.2575 4.9375 3.9375 4.9375 C4.67377813 19.31537577 1.39284729 26.60373661 -7.0625 37.9375 C-7.701875 38.824375 -8.34125 39.71125 -9 40.625 C-11.34439618 43.25356541 -13.88265165 45.47285246 -16.55859375 47.7578125 C-19.78587919 50.56721231 -22.92375356 53.46742635 -26.0625 56.375 C-26.9450647 57.19206421 -26.9450647 57.19206421 -27.84545898 58.02563477 C-29.25192206 59.32874553 -30.65732486 60.63300052 -32.0625 61.9375 C-32.0625 58.12256537 -30.56760499 56.73085253 -28.1015625 53.9609375 C-24.86328217 50.74747158 -21.2886024 47.97179422 -17.73828125 45.11328125 C-10.31186885 39.07457803 -5.25086487 32.64522514 -1.0625 23.9375 C-1.0625 22.9475 -1.0625 21.9575 -1.0625 20.9375 C-0.4025 20.9375 0.2575 20.9375 0.9375 20.9375 C1.0189222 18.70894426 1.07688079 16.47952345 1.125 14.25 C1.15980469 13.00863281 1.19460938 11.76726562 1.23046875 10.48828125 C0.8532937 5.91691959 -0.54746424 3.34805054 -3.875 0.25 C-10.78293185 -3.89475911 -18.25415917 -3.77547282 -26.0625 -3.0625 C-30.81998235 -1.78671543 -34.86130515 0.21177811 -39.0625 2.75 C-39.7225 3.141875 -40.3825 3.53375 -41.0625 3.9375 C-41.7225 3.6075 -42.3825 3.2775 -43.0625 2.9375 C-30.00278203 -8.05828434 -14.41182167 -9.70592071 0 0 Z " fill="#1B49C2" transform="translate(280.0625,274.0625)"/>
<path d="M0 0 C0.495 0.99 0.495 0.99 1 2 C-2.43501053 0.99463106 -5.48652 -0.19218719 -8.5625 -2 C-24.04873486 -11.01017301 -42.33489202 -11.34035973 -59.33984375 -7.18359375 C-65.44196864 -5.30662097 -70.62492181 -2.69873824 -75.94140625 0.828125 C-78 2 -78 2 -81 2 C-81 2.66 -81 3.32 -81 4 C-82.96147874 5.38938077 -84.96166576 6.7260411 -87 8 C-87.66 7.67 -88.32 7.34 -89 7 C-63.34190647 -15.761212 -28.69648698 -18.3880402 0 0 Z " fill="#20ADA3" transform="translate(265,418)"/>
<path d="M0 0 C2.73579138 1.64848968 4.99296769 3.50895669 7 6 C7 6.66 7 7.32 7 8 C4 7 4 7 2.125 5 C-0.38744116 2.6353495 -1.56311827 2.08183052 -5 2 C-8.7862028 3.5433431 -8.7862028 3.5433431 -12 6 C-12.50059916 8.41482413 -12.50059916 8.41482413 -12 11 C-8.25035557 13.82096155 -4.75977894 14.59867039 -0.1875 15.375 C9.413534 17.30324114 15.69816123 21.31178665 21.6484375 29.1796875 C23.43484674 32.90739696 23.15584366 35.52911213 22.8125 39.625 C22.71582031 40.93726563 22.61914062 42.24953125 22.51953125 43.6015625 C22 47 22 47 20 50 C19.01 49.505 19.01 49.505 18 49 C18.33 48.38125 18.66 47.7625 19 47.125 C20.89558342 41.20130181 20.94511719 35.32722753 18.3125 29.625 C14.38307932 22.85388755 8.23419099 20.2613242 1 18 C-0.9321539 17.65598866 -2.87010634 17.3429806 -4.8125 17.0625 C-8.5530253 16.45320763 -9.99032859 16.00682687 -13.1875 13.75 C-15 11 -15 11 -15.6875 8 C-14.91163795 4.61442014 -13.72994283 2.97029469 -10.90625 0.92578125 C-7.25851241 -0.84576344 -3.90933706 -0.98071604 0 0 Z " fill="#33B3A8" transform="translate(230,454)"/>
<path d="M0 0 C0.99 0.33 1.98 0.66 3 1 C-13.49844636 13.51990027 -30.9635914 19.91501216 -52 18 C-62.53357836 16.53085541 -71.78613345 13.32593442 -81 8 C-79.2109375 7.39453125 -79.2109375 7.39453125 -77 7 C-75.15359992 7.92320004 -73.30990656 8.85222098 -71.48046875 9.80859375 C-56.39018785 17.05668143 -36.97358166 17.72865327 -21.15234375 12.33984375 C-14.48673831 9.50675494 -7.86180355 6.4327413 -2.31640625 1.71875 C-1.55199219 1.1515625 -0.78757812 0.584375 0 0 Z " fill="#11AA9E" transform="translate(269,532)"/>
<path d="M0 0 C4.580586 2.290293 6.28389942 10.26303474 8 15 C10.67152994 23.33990526 11.25995096 31.30313443 11.3125 40 C11.31813965 40.89662354 11.3237793 41.79324707 11.32958984 42.71704102 C11.27571227 47.57104522 10.792364 51.43418855 9 56 C8.27982843 58.4548914 7.57169534 60.91334314 6.875 63.375 C6.52179688 64.62023437 6.16859375 65.86546875 5.8046875 67.1484375 C5.53914063 68.08945312 5.27359375 69.03046875 5 70 C4.34 70 3.68 70 3 70 C2.76539063 70.85851562 2.53078125 71.71703125 2.2890625 72.6015625 C0.85891912 76.37194049 -1.15264231 79.2459223 -3.625 82.375 C-4.04523438 82.92027344 -4.46546875 83.46554687 -4.8984375 84.02734375 C-5.92500693 85.35721778 -6.96149187 86.67942793 -8 88 C-8.33 87.01 -8.66 86.02 -9 85 C-8.34 85 -7.68 85 -7 85 C-6.76023437 84.48953125 -6.52046875 83.9790625 -6.2734375 83.453125 C-5.25134853 81.48419287 -4.12903166 79.56744204 -2.9765625 77.671875 C7.79014848 59.92382119 11.55831307 39.99653536 6.76269531 19.45629883 C5.17261036 13.5828279 2.87446844 8.33829853 0 3 C0 2.01 0 1.02 0 0 Z " fill="#19AEA2" transform="translate(285,440)"/>
<path d="M0 0 C0.99 0.33 1.98 0.66 3 1 C2.175 1.598125 1.35 2.19625 0.5 2.8125 C-2.06093413 5.40960552 -2.36424698 7.26736087 -2.375 10.875 C-2.28224285 12.9183854 -2.15440601 14.96034646 -2 17 C-1.36779643 25.92222774 -1.36779643 25.92222774 -1.12890625 29.87451172 C-1.03844516 31.36609175 -0.94152832 32.85728758 -0.83984375 34.34814453 C-0.68822547 36.77355112 -0.58890848 39.19656359 -0.5 41.625 C-0.44521484 42.38304932 -0.39042969 43.14109863 -0.33398438 43.92211914 C-0.26038798 46.96376266 -0.35347633 49.28657206 -2.45092773 51.60107422 C-6.0770695 54.3164393 -9.44658617 56.0276798 -14.0703125 55.7578125 C-18.20187596 54.13529567 -20.16682175 49.83127911 -22 46 C-22.66015625 43.703125 -22.66015625 43.703125 -23 42 C-20 43 -20 43 -18.7890625 45.03125 C-18.01396558 46.67507972 -17.24311667 48.32091927 -16.4765625 49.96875 C-15.1377402 52.21114093 -15.1377402 52.21114093 -12.5390625 52.8828125 C-8.65734039 53.06196891 -6.87497531 51.48293322 -4 49 C-2.23469779 44.7632747 -3.36647991 40.41937511 -4 36 C-4.8830227 29.08887565 -5.20399263 22.14823189 -5.375 15.1875 C-5.43216187 13.96873169 -5.43216187 13.96873169 -5.49047852 12.7253418 C-5.55045895 8.41252665 -5.28755605 5.81107447 -2.4765625 2.42578125 C-1.25066406 1.22501953 -1.25066406 1.22501953 0 0 Z " fill="#0D43BF" transform="translate(135,434)"/>
<path d="M0 0 C0.33 0 0.66 0 1 0 C1.33 20.13 1.66 40.26 2 61 C-2.29 61 -6.58 61 -11 61 C-11 41.2 -11 21.4 -11 1 C-10.67 1 -10.34 1 -10 1 C-10 20.14 -10 39.28 -10 59 C-6.7 59 -3.4 59 0 59 C0 39.53 0 20.06 0 0 Z " fill="#05154F" transform="translate(387,523)"/>
<path d="M0 0 C0.97413361 2.57789015 1.11872567 3.6927713 0.109375 6.3046875 C-0.33921875 7.15289062 -0.7878125 8.00109375 -1.25 8.875 C-8.19259971 23.47573198 -8.1182465 39.26445455 -6 55 C-8.97141382 52.5453538 -9.57571451 50.80341634 -10 47 C-10.97813164 29.13306258 -8.47047021 15.68777497 0 0 Z " fill="#35B6AD" transform="translate(164,440)"/>
<path d="M0 0 C0.66 0.33 1.32 0.66 2 1 C1.29875 1.67804688 0.5975 2.35609375 -0.125 3.0546875 C-14.56025598 16.61900908 -14.56025598 16.61900908 -20.43359375 34.875 C-20.45062384 36.58324894 -20.45173562 38.29172548 -20.4375 40 C-20.45748047 40.85078125 -20.47746094 41.7015625 -20.49804688 42.578125 C-20.49327103 48.80583208 -18.96771123 52.56223055 -16 58 C-16.33 58.66 -16.66 59.32 -17 60 C-23.14289525 54.47482606 -23.56464521 45.82605897 -24 38.0078125 C-24 31.08953865 -20.93481481 25.12483091 -18 19 C-17.5875 18.13375 -17.175 17.2675 -16.75 16.375 C-14.55507799 13.39617727 -11.96241158 11.22527272 -9.140625 8.84765625 C-5.92144676 6.06905897 -2.96333628 3.04668011 0 0 Z " fill="#0C47C2" transform="translate(59,493)"/>
<path d="M0 0 C0.495 1.485 0.495 1.485 1 3 C-0.92858812 5.00931971 -2.866898 7.00727269 -4.8125 9 C-5.63331055 9.85851562 -5.63331055 9.85851562 -6.47070312 10.734375 C-7.92391154 12.21400538 -9.45816374 13.61296658 -11 15 C-11.99 15 -12.98 15 -14 15 C-14.33257812 15.81984375 -14.33257812 15.81984375 -14.671875 16.65625 C-16.41530046 19.73288316 -18.75077587 22.04097787 -21.25 24.5 C-21.71535156 24.97308594 -22.18070313 25.44617188 -22.66015625 25.93359375 C-26.92242422 30.17237815 -31.54134239 33.48061956 -37 36 C-32.77182706 30.68458259 -28.04417121 26.1822437 -23.03369141 21.62719727 C-19.4910775 18.39935926 -16.0541941 15.10102601 -12.6875 11.6875 C-8.62962159 7.57649061 -4.41437802 3.72386079 0 0 Z " fill="#1A4EC5" transform="translate(236,278)"/>
<path d="M0 0 C-1.32900341 2.95499307 -2.77299793 5.01274778 -5.08203125 7.27734375 C-5.68466797 7.87353516 -6.28730469 8.46972656 -6.90820312 9.08398438 C-7.53662109 9.69564453 -8.16503906 10.30730469 -8.8125 10.9375 C-9.42931641 11.54529297 -10.04613281 12.15308594 -10.68164062 12.77929688 C-11.89051825 13.97018907 -13.10116466 15.1592889 -14.3137207 16.34643555 C-17.14854232 19.1262599 -19.98168108 21.90625005 -22.6875 24.8125 C-24 26 -24 26 -26 26 C-26.3403125 26.928125 -26.3403125 26.928125 -26.6875 27.875 C-28.37929835 30.61410209 -29.99244161 31.05024472 -33 32 C-27.71510279 25.54380465 -21.87015907 19.6840136 -15.97607422 13.79077148 C-14.23505742 12.0475384 -12.50223063 10.2964178 -10.76953125 8.54492188 C-9.66455103 7.43701255 -8.55909952 6.32957302 -7.453125 5.22265625 C-6.93542542 4.69777115 -6.41772583 4.17288605 -5.88433838 3.63209534 C-2.22886152 0 -2.22886152 0 0 0 Z " fill="#2152C6" transform="translate(90,442)"/>
<path d="M0 0 C2 3 2 3 2.3984375 5.078125 C2.80764872 7.12325918 2.80764872 7.12325918 4.6015625 7.984375 C5.26929688 8.23703125 5.93703125 8.4896875 6.625 8.75 C12.54186348 11.44238572 16.25858591 16.02508427 19.5 21.5625 C20.18204635 24.88747596 19.64779286 27.69625641 19 31 C14.71 31 10.42 31 6 31 C6 30.34 6 29.68 6 29 C9.96 29 13.92 29 18 29 C15.8933593 20.68431304 13.94119704 16.89557334 6.9375 11.75 C3.9625021 9.78651133 3.9625021 9.78651133 0 9 C0 6.03 0 3.06 0 0 Z " fill="#27B2A7" transform="translate(231,433)"/>
<path d="M0 0 C0.66 0 1.32 0 2 0 C1.97679688 0.75023437 1.95359375 1.50046875 1.9296875 2.2734375 C1.80854931 9.14370329 2.27144949 15.350035 4 22 C4.17144531 22.73734375 4.34289062 23.4746875 4.51953125 24.234375 C6.19034375 30.31397663 9.47012322 34.70275045 13.35546875 39.6171875 C15 42 15 42 15 45 C6.88965118 37.36673052 0.59019669 29.03319013 -0.16308594 17.50390625 C-0.33278894 11.66277097 -0.2076966 5.83858232 0 0 Z " fill="#1B54C6" transform="translate(20,526)"/>
<path d="M0 0 C0.66 0.33 1.32 0.66 2 1 C1.21238281 1.65484375 0.42476562 2.3096875 -0.38671875 2.984375 C-7.94873982 9.30735464 -15.25172239 15.85186403 -22.45996094 22.57324219 C-26.26310018 26.09663244 -30.13486932 29.54493962 -34 33 C-34.33 32.01 -34.66 31.02 -35 30 C-34.0925 29.2575 -33.185 28.515 -32.25 27.75 C-30.2904194 26.12780002 -28.53053664 24.51749599 -26.75 22.6875 C-25 21 -25 21 -23 21 C-22.67 20.01 -22.34 19.02 -22 18 C-20.2578125 16.2109375 -20.2578125 16.2109375 -18.125 14.375 C-17.42632812 13.76398438 -16.72765625 13.15296875 -16.0078125 12.5234375 C-14 11 -14 11 -11 10 C-11 9.34 -11 8.68 -11 8 C-10.34 8 -9.68 8 -9 8 C-8.67 7.01 -8.34 6.02 -8 5 C-6.22265625 3.578125 -6.22265625 3.578125 -4.0625 2.25 C-3.35222656 1.80140625 -2.64195312 1.3528125 -1.91015625 0.890625 C-1.27980469 0.59671875 -0.64945313 0.3028125 0 0 Z " fill="#154AC4" transform="translate(173,401)"/>
<path d="M0 0 C2.64 0 5.28 0 8 0 C8 0.33 8 0.66 8 1 C6.02 1 4.04 1 2 1 C2 10.24 2 19.48 2 29 C-2.62 29 -7.24 29 -12 29 C-11.67 28.34 -11.34 27.68 -11 27 C-7.37 27 -3.74 27 0 27 C0 18.09 0 9.18 0 0 Z " fill="#1E295B" transform="translate(650,555)"/>
<path d="M0 0 C10.56 0 21.12 0 32 0 C32 3.63 32 7.26 32 11 C31.34 11 30.68 11 30 11 C30 8.03 30 5.06 30 2 C20.1 2 10.2 2 0 2 C0 1.34 0 0.68 0 0 Z " fill="#152253" transform="translate(718,572)"/>
<path d="M0 0 C0.33 0.66 0.66 1.32 1 2 C-3.63154815 9.08626867 -8.0349003 15.30316439 -14.49609375 20.8203125 C-17.72337919 23.62971231 -20.86125356 26.52992635 -24 29.4375 C-24.58837646 29.98220947 -25.17675293 30.52691895 -25.78295898 31.08813477 C-27.18942206 32.39124553 -28.59482486 33.69550052 -30 35 C-30 31.18506537 -28.50510499 29.79335253 -26.0390625 27.0234375 C-22.80297396 23.81214657 -19.23276156 21.03766239 -15.6796875 18.1875 C-9.14728582 12.8549272 -4.43687337 7.16725698 0 0 Z " fill="#1247C2" transform="translate(278,301)"/>
<path d="M0 0 C5.43233905 1.56953616 10.12127388 4.06972766 15.0625 6.75 C22.5980089 10.78304815 30.17878035 14.545745 38 18 C38 18.66 38 19.32 38 20 C33.73725344 19.37189977 30.39930822 17.87979572 26.5625 15.9453125 C25.95994385 15.64309784 25.3573877 15.34088318 24.73657227 15.0295105 C23.46782189 14.3917872 22.20050857 13.75119768 20.93457031 13.10791016 C19.00892387 12.12953401 17.07916094 11.15971864 15.1484375 10.19140625 C3.26106807 4.20365005 3.26106807 4.20365005 0 2 C0 1.34 0 0.68 0 0 Z " fill="#1348C3" transform="translate(52,421)"/>
<path d="M0 0 C0 0.66 0 1.32 0 2 C-1.02351563 2.05671875 -2.04703125 2.1134375 -3.1015625 2.171875 C-7.86434957 3.18360933 -9.96466749 4.94327253 -13.375 8.25 C-13.90738281 8.72824219 -14.43976562 9.20648438 -14.98828125 9.69921875 C-18.10431872 12.62496385 -19.7255192 14.69498531 -20 19 C-20 19.99 -20 20.98 -20 22 C-20.99 21.34 -21.98 20.68 -23 20 C-22.77040571 14.47582233 -21.57027349 11.88691397 -17.74414062 8.16796875 C-17.18919922 7.65878906 -16.63425781 7.14960938 -16.0625 6.625 C-15.51142578 6.09261719 -14.96035156 5.56023437 -14.39257812 5.01171875 C-9.19287872 0.04578469 -6.94467386 -0.11201087 0 0 Z " fill="#2556C6" transform="translate(76,293)"/>
<path d="M0 0 C0.66 0.33 1.32 0.66 2 1 C-1.50886381 5.05509854 -5.62767087 7.19552941 -10.3125 9.625 C-11.04662109 10.01945313 -11.78074219 10.41390625 -12.53710938 10.8203125 C-16.97107507 13.14942314 -21.15999612 14.73521244 -26 16 C-26.33 16.33 -26.66 16.66 -27 17 C-28.51928038 17.07179964 -30.04167482 17.08392007 -31.5625 17.0625 C-32.38878906 17.05347656 -33.21507813 17.04445313 -34.06640625 17.03515625 C-35.02353516 17.01775391 -35.02353516 17.01775391 -36 17 C-32.71001501 15.22356743 -29.36179545 14.09840672 -25.8125 12.9375 C-11.92719547 8.12579245 -11.92719547 8.12579245 0 0 Z " fill="#25ABAB" transform="translate(129,551)"/>
<path d="M0 0 C-1.03898437 0.36351562 -2.07796875 0.72703125 -3.1484375 1.1015625 C-10.59793689 3.767398 -17.46687425 6.45797067 -24.08203125 10.8984375 C-26 12 -26 12 -29 12 C-29 12.66 -29 13.32 -29 14 C-30.96147874 15.38938077 -32.96166576 16.7260411 -35 18 C-35.66 17.67 -36.32 17.34 -37 17 C-28.78685842 9.7141486 -11.81778324 -3.78169064 0 0 Z " fill="#25B1A5" transform="translate(213,408)"/>
<path d="M0 0 C1.99097846 2.98646769 2.94124926 5.59687262 4 9 C7.63 9.33 11.26 9.66 15 10 C15.33 9.01 15.66 8.02 16 7 C16.33 8.98 16.66 10.96 17 13 C12.38 13 7.76 13 3 13 C-1.09326923 4.56538462 -1.09326923 4.56538462 -0.62109375 1.703125 C-0.41613281 1.14109375 -0.21117187 0.5790625 0 0 Z " fill="#283963" transform="translate(536,572)"/>
<path d="M0 0 C6.03659933 0.30182997 9.70872167 3.01849548 14 7 C18.18338508 11.79558778 18.2650301 15.52802072 17.875 21.75 C17.32236095 28.51645857 17.32236095 28.51645857 15 32 C14.34 31.67 13.68 31.34 13 31 C13.33 30.38125 13.66 29.7625 14 29.125 C15.89558342 23.20130181 15.94511719 17.32722753 13.3125 11.625 C10.15336313 6.11590868 5.65485213 3.63016378 0 1 C0 0.67 0 0.34 0 0 Z " fill="#1FB0A4" transform="translate(235,472)"/>
<path d="M0 0 C0.33 0.66 0.66 1.32 1 2 C-1.75614785 5.00670674 -4.00375643 7.10248741 -7.6875 8.875 C-11.24505268 11.12961958 -11.24505268 11.12961958 -12.4375 14.75 C-12.623125 15.8225 -12.80875 16.895 -13 18 C-17.29 18 -21.58 18 -26 18 C-26 17.67 -26 17.34 -26 17 C-22.04 17 -18.08 17 -14 17 C-14 14.03 -14 11.06 -14 8 C-12.98679688 7.63648438 -12.98679688 7.63648438 -11.953125 7.265625 C-5.21530749 4.80163073 -5.21530749 4.80163073 0 0 Z " fill="#2BB2A8" transform="translate(245,507)"/>
<path d="M0 0 C0.99 0.33 1.98 0.66 3 1 C-3.6 7.6 -10.2 14.2 -17 21 C-17.33 20.01 -17.66 19.02 -18 18 C-12 12 -6 6 0 0 Z " fill="#194FC4" transform="translate(86,465)"/>
<path d="M0 0 C0.99 0.495 0.99 0.495 2 1 C3.87056791 1.2275015 5.74685958 1.40962811 7.625 1.5625 C8.62789062 1.64628906 9.63078125 1.73007812 10.6640625 1.81640625 C11.43492187 1.87699219 12.20578125 1.93757812 13 2 C13 1.34 13 0.68 13 0 C14.9375 0.8125 14.9375 0.8125 17 2 C17.33 2.99 17.66 3.98 18 5 C15.37472811 5.05382106 12.75055287 5.09358313 10.125 5.125 C9.37863281 5.14175781 8.63226562 5.15851562 7.86328125 5.17578125 C5.90805539 5.1933959 3.95257979 5.10320189 2 5 C1.34 4.34 0.68 3.68 0 3 C0 2.01 0 1.02 0 0 Z " fill="#2B3B67" transform="translate(678,580)"/>
<path d="M0 0 C0.74056641 0.02707031 1.48113281 0.05414063 2.24414062 0.08203125 C4.05985998 0.15231716 5.87406801 0.25992911 7.6875 0.375 C6.31766497 3.53615776 5.6984362 4.3677092 2.6875 6.375 C3.0175 5.385 3.3475 4.395 3.6875 3.375 C-3.05131911 2.70222182 -3.05131911 2.70222182 -8.9375 5.375 C-9.39125 6.035 -9.845 6.695 -10.3125 7.375 C-11.3025 7.045 -12.2925 6.715 -13.3125 6.375 C-9.38015268 0.46484486 -6.96282949 -0.48534468 0 0 Z " fill="#323F6B" transform="translate(686.3125,509.625)"/>
<path d="M0 0 C0.66 0.33 1.32 0.66 2 1 C0.33565675 4.06589546 -1.14404171 6.13094701 -3.75 8.5 C-4.4925 9.325 -5.235 10.15 -6 11 C-5.95020416 13.760165 -5.95020416 13.760165 -5 16 C-5.99 16 -6.98 16 -8 16 C-8.66 15.34 -9.32 14.68 -10 14 C-9.8199097 9.34114219 -7.72901258 7.29357525 -4.4375 4.1875 C-3.61121094 3.39730469 -2.78492188 2.60710937 -1.93359375 1.79296875 C-1.29550781 1.20128906 -0.65742187 0.60960937 0 0 Z " fill="#2659C6" transform="translate(58,405)"/>
<path d="M0 0 C0.33 0.99 0.66 1.98 1 3 C-0.6560051 5.31542335 -2.30894827 7.37928203 -4.1875 9.5 C-4.68314453 10.08136719 -5.17878906 10.66273438 -5.68945312 11.26171875 C-8.24979641 14.2177822 -10.7241235 16.81087012 -14 19 C-14.66 18.67 -15.32 18.34 -16 18 C-15.18015625 17.11957031 -14.3603125 16.23914063 -13.515625 15.33203125 C-12.42699378 14.15893726 -11.33845712 12.98575552 -10.25 11.8125 C-9.71117187 11.23435547 -9.17234375 10.65621094 -8.6171875 10.06054688 C-5.60201909 6.80637122 -2.72218201 3.50844332 0 0 Z " fill="#2255C7" transform="translate(146,365)"/>
<path d="M0 0 C1.45606519 4.52092968 0.27032841 7.51648796 -1 12 C-1.66 12 -2.32 12 -3 12 C-3 17.28 -3 22.56 -3 28 C-3.33 28 -3.66 28 -4 28 C-4.08166849 24.99943916 -4.14081551 22.0011461 -4.1875 19 C-4.21263672 18.16082031 -4.23777344 17.32164062 -4.26367188 16.45703125 C-4.33183504 10.59499928 -3.41564269 6.35457321 -1 1 C-0.67 0.67 -0.34 0.34 0 0 Z " fill="#436CCE" transform="translate(23,514)"/>
<path d="M0 0 C2 1 2 1 3.125 3.5 C4.95055596 10.80222385 4.41143087 16.31928122 1 23 C0.34 23 -0.32 23 -1 23 C-0.69052329 21.06201479 -0.37731166 19.12462574 -0.0625 17.1875 C0.11152344 16.10855469 0.28554688 15.02960938 0.46484375 13.91796875 C1 11 1 11 2 8 C1.3507041 6.65812182 0.68268138 5.32520503 0 4 C0 2.68 0 1.36 0 0 Z " fill="#4E5A81" transform="translate(414,408)"/>
<path d="M0 0 C0.33 0 0.66 0 1 0 C1.04898438 1.03898437 1.09796875 2.07796875 1.1484375 3.1484375 C1.51951778 10.27334989 1.94882206 17.13195626 3.6953125 24.08203125 C4 26 4 26 3 29 C0.14630771 24.71946156 -0.12869891 20.97792246 -0.09765625 15.91796875 C-0.09443359 14.98662109 -0.09121094 14.05527344 -0.08789062 13.09570312 C-0.07951172 12.13599609 -0.07113281 11.17628906 -0.0625 10.1875 C-0.05798828 9.20845703 -0.05347656 8.22941406 -0.04882812 7.22070312 C-0.03708684 4.81373889 -0.02066419 2.40690143 0 0 Z " fill="#4CBEB4" transform="translate(154,466)"/>
<path d="M0 0 C3 1 3 1 4.07495117 2.76586914 C4.39439697 3.51473389 4.71384277 4.26359863 5.04296875 5.03515625 C5.56987305 6.24848633 5.56987305 6.24848633 6.10742188 7.48632812 C6.46384766 8.33646484 6.82027344 9.18660156 7.1875 10.0625 C7.55552734 10.91650391 7.92355469 11.77050781 8.30273438 12.65039062 C9.2115121 14.76300377 10.11006202 16.87939769 11 19 C10.34 19.33 9.68 19.66 9 20 C7.48987869 17.23456804 5.99369852 14.46183193 4.5 11.6875 C4.07074219 10.90181641 3.64148438 10.11613281 3.19921875 9.30664062 C2.79316406 8.54931641 2.38710937 7.79199219 1.96875 7.01171875 C1.59169922 6.31522217 1.21464844 5.61872559 0.82617188 4.90112305 C0 3 0 3 0 0 Z " fill="#1D51C5" transform="translate(101,454)"/>
<path d="M0 0 C0.99 0.33 1.98 0.66 3 1 C4.09765625 3.58203125 4.09765625 3.58203125 5.0625 6.8125 C6.32538334 11.09902659 6.32538334 11.09902659 8.18359375 15.13671875 C9.21051184 17.48045046 8.84391249 18.63704504 8 21 C6.84475582 18.62918558 5.70074792 16.25396043 4.5625 13.875 C4.07426758 12.87726563 4.07426758 12.87726563 3.57617188 11.859375 C1.69415567 7.90132029 0.48773294 4.41020487 0 0 Z " fill="#21AFA5" transform="translate(156,494)"/>
<path d="M0 0 C0.33 0 0.66 0 1 0 C1.144375 0.928125 1.28875 1.85625 1.4375 2.8125 C2.63320441 6.02652271 2.63320441 6.02652271 4.8203125 6.99609375 C7.19732648 7.79533364 9.55757945 8.4308557 12 9 C12.8559375 9.20496094 13.711875 9.40992188 14.59375 9.62109375 C16.72442765 10.10993593 18.85691563 10.56935657 21 11 C21 11.33 21 11.66 21 12 C18.79095369 11.91224337 16.58271407 11.80405633 14.375 11.6875 C13.14523438 11.62949219 11.91546875 11.57148438 10.6484375 11.51171875 C6.67512741 10.95443436 2.92414507 9.92414507 0 7 C-0.04092937 4.66702567 -0.04241723 2.33294775 0 0 Z " fill="#11A99E" transform="translate(216,460)"/>
<path d="M0 0 C7.55494848 5.12370176 14.92428388 11.16119965 18 20 C17.34 20 16.68 20 16 20 C15.07341317 18.62727878 14.15349998 17.24963429 13.265625 15.8515625 C9.56393274 10.43612382 5.13264652 6.04390332 0 2 C0 1.34 0 0.68 0 0 Z " fill="#23B0A4" transform="translate(267,420)"/>
<path d="M0 0 C0.33 0 0.66 0 1 0 C1.33 7.59 1.66 15.18 2 23 C2.66 23.33 3.32 23.66 4 24 C3.34 25.32 2.68 26.64 2 28 C1.34 28 0.68 28 0 28 C0 18.76 0 9.52 0 0 Z " fill="#DDE1E7" transform="translate(652,513)"/>
<path d="M0 0 C-1.58667578 3.90285767 -4.13350481 6.33520982 -7.125 9.25 C-8.03507812 10.14203125 -8.94515625 11.0340625 -9.8828125 11.953125 C-10.58148438 12.62859375 -11.28015625 13.3040625 -12 14 C-12.33 13.01 -12.66 12.02 -13 11 C-11.21427748 9.16052663 -9.42197551 7.32842259 -7.625 5.5 C-7.11710937 4.97535156 -6.60921875 4.45070313 -6.0859375 3.91015625 C-2.2265625 0 -2.2265625 0 0 0 Z " fill="#164CC5" transform="translate(90,442)"/>
<path d="M0 0 C1.65 0 3.3 0 5 0 C5 0.66 5 1.32 5 2 C4.01 2.33 3.02 2.66 2 3 C1.67 11.25 1.34 19.5 1 28 C0.67 28 0.34 28 0 28 C0 18.76 0 9.52 0 0 Z " fill="#D4D8E1" transform="translate(652,556)"/>
<path d="M0 0 C1.45428437 0.0396623 2.90799128 0.11093049 4.359375 0.2109375 C5.10445312 0.23800781 5.84953125 0.26507812 6.6171875 0.29296875 C8.44916493 0.36342942 10.27964651 0.47104757 12.109375 0.5859375 C11.779375 1.5759375 11.449375 2.5659375 11.109375 3.5859375 C11.109375 2.9259375 11.109375 2.2659375 11.109375 1.5859375 C3.04709443 1.42586305 3.04709443 1.42586305 -3.640625 5.1484375 C-4.053125 5.9528125 -4.465625 6.7571875 -4.890625 7.5859375 C-5.880625 7.2559375 -6.870625 6.9259375 -7.890625 6.5859375 C-5.71766897 2.22858884 -4.9524278 0.74584756 0 0 Z " fill="#40517B" transform="translate(613.890625,560.4140625)"/>
<path d="M0 0 C0.68707031 0.34933594 1.37414062 0.69867188 2.08203125 1.05859375 C2.98308594 1.51363281 3.88414062 1.96867187 4.8125 2.4375 C6.15248047 3.11619141 6.15248047 3.11619141 7.51953125 3.80859375 C10.03999478 5.0831605 10.03999478 5.0831605 13 6 C13 8.97 13 11.94 13 15 C12.34 14.67 11.68 14.34 11 14 C10.938125 13.071875 10.87625 12.14375 10.8125 11.1875 C10.3475079 8.03021077 10.3475079 8.03021077 8.48828125 6.78515625 C6.68669037 5.78427243 4.85722477 4.8921167 3 4 C2.01 3.34 1.02 2.68 0 2 C0 1.34 0 0.68 0 0 Z " fill="#15ADA1" transform="translate(206,509)"/>
<path d="M0 0 C0.33 0 0.66 0 1 0 C1.43995881 8.59141782 1.46309065 15.46853452 -3 23 C-3.66 22.34 -4.32 21.68 -5 21 C-4.625 18.375 -4.625 18.375 -4 16 C-3.34 16 -2.68 16 -2 16 C-2 14.68 -2 13.36 -2 12 C-1.34 12 -0.68 12 0 12 C0 8.04 0 4.08 0 0 Z " fill="#3F68CC" transform="translate(283,279)"/>
<path d="M0 0 C0 0.66 0 1.32 0 2 C-1.69270833 2.71614583 -3.38541667 3.43229167 -5.078125 4.1484375 C-7.0339362 4.97799056 -7.0339362 4.97799056 -8.9375 6.09375 C-11.36827703 7.1618187 -13.10875485 7.20268368 -15.75 7.125 C-16.54921875 7.10695313 -17.3484375 7.08890625 -18.171875 7.0703125 C-18.77515625 7.04710937 -19.3784375 7.02390625 -20 7 C-16.42157061 5.07591988 -12.69718004 3.73949434 -8.875 2.375 C-7.63492188 1.92898438 -6.39484375 1.48296875 -5.1171875 1.0234375 C-2 0 -2 0 0 0 Z " fill="#29A4B2" transform="translate(113,561)"/>
<path d="M0 0 C1.08747157 3.2624147 0.90762745 4.14800188 0.125 7.375 C-1.22474671 13.54005932 -1.62543073 19.71117916 -2 26 C-2.33 26 -2.66 26 -3 26 C-3.08774066 22.79184155 -3.14063706 19.58399538 -3.1875 16.375 C-3.21263672 15.47136719 -3.23777344 14.56773437 -3.26367188 13.63671875 C-3.32221524 8.28975851 -2.94917714 4.65985469 0 0 Z " fill="#14ACA1" transform="translate(158,456)"/>
<path d="M0 0 C-2.57861025 1.03444249 -5.16174635 2.05272284 -7.75 3.0625 C-8.47960937 3.35705078 -9.20921875 3.65160156 -9.9609375 3.95507812 C-10.66992188 4.22900391 -11.37890625 4.50292969 -12.109375 4.78515625 C-12.75874023 5.04176025 -13.40810547 5.29836426 -14.07714844 5.56274414 C-16.36632786 6.08330284 -17.79256664 5.72364304 -20 5 C-17.42138975 3.96555751 -14.83825365 2.94727716 -12.25 1.9375 C-11.15558594 1.49567383 -11.15558594 1.49567383 -10.0390625 1.04492188 C-8.97558594 0.6340332 -8.97558594 0.6340332 -7.890625 0.21484375 C-7.24125977 -0.04176025 -6.59189453 -0.29836426 -5.92285156 -0.56274414 C-3.63367214 -1.08330284 -2.20743336 -0.72364304 0 0 Z " fill="#31B3A9" transform="translate(213,408)"/>
<path d="M0 0 C0.66 0.33 1.32 0.66 2 1 C0.4114658 5.28904235 -2.43127368 7.32345526 -6 10 C-6.66 10 -7.32 10 -8 10 C-6.34908222 5.70761377 -3.26245434 3.1206085 0 0 Z " fill="#273867" transform="translate(570,516)"/>
<path d="M0 0 C3.3 0 6.6 0 10 0 C10 0.66 10 1.32 10 2 C10.66 2.33 11.32 2.66 12 3 C6.72 3 1.44 3 -4 3 C-2.68 2.67 -1.36 2.34 0 2 C0 1.34 0 0.68 0 0 Z " fill="#12B2A6" transform="translate(221,547)"/>
<path d="M0 0 C0.928125 1.175625 0.928125 1.175625 1.875 2.375 C3.89858661 4.96837647 3.89858661 4.96837647 6 7 C5.625 9.125 5.625 9.125 5 11 C4.34 11 3.68 11 3 11 C2.67 11.99 2.34 12.98 2 14 C-0.0625 15.1875 -0.0625 15.1875 -2 16 C-0.95125002 13.37812506 -0.35068687 12.20628639 2.125 10.75 C2.74375 10.5025 3.3625 10.255 4 10 C3.34 8.906875 2.68 7.81375 2 6.6875 C0.41535071 4.06292462 0 3.1743622 0 0 Z " fill="#1CAEA3" transform="translate(165,513)"/>
<path d="M0 0 C1 3 1 3 0.00390625 5.48046875 C-0.47175781 6.37378906 -0.94742187 7.26710938 -1.4375 8.1875 C-1.91058594 9.08855469 -2.38367188 9.98960937 -2.87109375 10.91796875 C-3.24363281 11.60503906 -3.61617187 12.29210937 -4 13 C-4.99 13 -5.98 13 -7 13 C-5.58832253 7.73829306 -3.25149768 4.27828642 0 0 Z " fill="#2D5EC9" transform="translate(29,502)"/>
<path d="M0 0 C1.32 0.33 2.64 0.66 4 1 C1.03 3.97 -1.94 6.94 -5 10 C-5.33 9.01 -5.66 8.02 -6 7 C-4.78515625 5.17578125 -4.78515625 5.17578125 -3.0625 3.3125 C-2.49660156 2.68988281 -1.93070313 2.06726563 -1.34765625 1.42578125 C-0.90292969 0.95527344 -0.45820312 0.48476563 0 0 Z " fill="#124FC5" transform="translate(36,494)"/>
<path d="M0 0 C1.89492187 0.15275391 1.89492187 0.15275391 3.828125 0.30859375 C4.79234375 0.39238281 5.7565625 0.47617187 6.75 0.5625 C6.75 0.8925 6.75 1.2225 6.75 1.5625 C-4.14 2.0575 -4.14 2.0575 -15.25 2.5625 C-9.56626535 -0.27936733 -6.36742382 -0.53061865 0 0 Z " fill="#013ABF" transform="translate(224.25,384.4375)"/>
<path d="M0 0 C0.7734375 -0.01417969 1.546875 -0.02835938 2.34375 -0.04296875 C4.5 0.1875 4.5 0.1875 7.5 2.1875 C5.75181409 2.41054441 4.00129677 2.6153645 2.25 2.8125 C1.27546875 2.92851563 0.3009375 3.04453125 -0.703125 3.1640625 C-3.63429393 3.18862537 -5.04528964 2.7187717 -7.5 1.1875 C-4.71398777 0.25882926 -2.88933911 0.02407783 0 0 Z " fill="#BDC3D0" transform="translate(592.5,521.8125)"/>
<path d="M0 0 C0.99 0.33 1.98 0.66 3 1 C-0.3 4.3 -3.6 7.6 -7 11 C-7.33 10.01 -7.66 9.02 -8 8 C-5.36 5.36 -2.72 2.72 0 0 Z " fill="#2656C7" transform="translate(86,465)"/>
<path d="M0 0 C0.56203125 0.25652344 1.1240625 0.51304687 1.703125 0.77734375 C1.001875 1.33421875 0.300625 1.89109375 -0.421875 2.46484375 C-3.41031761 4.86859107 -6.35627738 7.31544807 -9.296875 9.77734375 C-9.956875 9.44734375 -10.616875 9.11734375 -11.296875 8.77734375 C-9.89609102 7.241869 -8.47566597 5.72429227 -7.046875 4.21484375 C-5.86351562 2.94447266 -5.86351562 2.94447266 -4.65625 1.6484375 C-2.296875 -0.22265625 -2.296875 -0.22265625 0 0 Z " fill="#2C5BC9" transform="translate(210.296875,304.22265625)"/>
<path d="M0 0 C0.66 0 1.32 0 2 0 C2 3 2 3 0.25 4.82421875 C-0.4925 5.43910156 -1.235 6.05398438 -2 6.6875 C-2.7425 7.31011719 -3.485 7.93273437 -4.25 8.57421875 C-4.8275 9.04472656 -5.405 9.51523437 -6 10 C-6.66 9.67 -7.32 9.34 -8 9 C-6.85459775 7.68712379 -5.70866567 6.37470979 -4.5625 5.0625 C-3.92441406 4.33160156 -3.28632812 3.60070312 -2.62890625 2.84765625 C-1.77458541 1.87860647 -0.91348825 0.91348825 0 0 Z " fill="#C8D5EC" transform="translate(99,454)"/>
<path d="M0 0 C0.66 0.33 1.32 0.66 2 1 C0.76110404 2.48847937 -0.4915672 3.96550105 -1.75 5.4375 C-2.79414062 6.67306641 -2.79414062 6.67306641 -3.859375 7.93359375 C-6.01343015 10.01296451 -7.08310781 10.63867326 -10 11 C-6.79239749 7.19364503 -3.59253891 3.45436433 0 0 Z " fill="#2153C6" transform="translate(128,386)"/>
<path d="M0 0 C0.99 0.33 1.98 0.66 3 1 C2.46890625 1.45890625 1.9378125 1.9178125 1.390625 2.390625 C-2.18324699 5.49493717 -5.71854059 8.58181312 -9 12 C-9 9 -9 9 -6.75 6.5625 C-5.8425 5.716875 -4.935 4.87125 -4 4 C-3.236875 3.236875 -2.47375 2.47375 -1.6875 1.6875 C-1.130625 1.130625 -0.57375 0.57375 0 0 Z " fill="#134AC4" transform="translate(98,453)"/>
<path d="M0 0 C0.99 0.33 1.98 0.66 3 1 C0.03 3.97 -2.94 6.94 -6 10 C-6.66 9.34 -7.32 8.68 -8 8 C-6.37660195 6.29115995 -4.70680947 4.62553283 -3 3 C-2.34 3 -1.68 3 -1 3 C-0.67 2.01 -0.34 1.02 0 0 Z " fill="#1E51C6" transform="translate(244,336)"/>
<path d="M0 0 C0.33 0.99 0.66 1.98 1 3 C-2.57380342 4.19126781 -4.50883302 3.7349445 -8.1875 3.0625 C-9.27417969 2.86785156 -10.36085937 2.67320312 -11.48046875 2.47265625 C-12.31191406 2.31667969 -13.14335937 2.16070312 -14 2 C-14 1.67 -14 1.34 -14 1 C-13.07316406 1.01160156 -12.14632812 1.02320313 -11.19140625 1.03515625 C-9.39509766 1.04869141 -9.39509766 1.04869141 -7.5625 1.0625 C-5.77005859 1.07990234 -5.77005859 1.07990234 -3.94140625 1.09765625 C-1.11126659 1.33901792 -1.11126659 1.33901792 0 0 Z " fill="#1A4BC3" transform="translate(198,314)"/>
<path d="M0 0 C4.92432253 1.68833915 8.3435645 4.3435645 12 8 C11.01 8.495 11.01 8.495 10 9 C8.70391053 8.06862408 7.41328368 7.1296434 6.125 6.1875 C5.40570313 5.66542969 4.68640625 5.14335938 3.9453125 4.60546875 C2 3 2 3 0 0 Z " fill="#1964C3" transform="translate(45,558)"/>
<path d="M0 0 C1 3 1 3 0.109375 4.7890625 C-0.33921875 5.39492188 -0.7878125 6.00078125 -1.25 6.625 C-1.68828125 7.23601562 -2.1265625 7.84703125 -2.578125 8.4765625 C-4 10 -4 10 -7 11 C-5.5140084 6.40693504 -3.14985318 3.56430755 0 0 Z " fill="#30B4AA" transform="translate(172,429)"/>
<path d="M0 0 C0.33 0 0.66 0 1 0 C1.05402274 2.10388569 1.09280256 4.20816714 1.125 6.3125 C1.14820313 7.48425781 1.17140625 8.65601563 1.1953125 9.86328125 C1 13 1 13 -1 16 C-1.66 15.67 -2.32 15.34 -3 15 C-2.690625 14.38125 -2.38125 13.7625 -2.0625 13.125 C-0.5960722 8.81197706 -0.33380974 4.5240004 0 0 Z " fill="#49BDB3" transform="translate(251,488)"/>
<path d="M0 0 C0.66 0.66 1.32 1.32 2 2 C1.98252112 4.59269983 1.86231408 7.0525154 1.625 9.625 C1.56828125 10.33140625 1.5115625 11.0378125 1.453125 11.765625 C1.31159079 13.51121361 1.15702613 15.25573673 1 17 C0.67 17 0.34 17 0 17 C-0.19386492 14.35448944 -0.38038267 11.70882217 -0.5625 9.0625 C-0.61857422 8.30775391 -0.67464844 7.55300781 -0.73242188 6.77539062 C-0.86176157 4.85254042 -0.93516912 2.92610452 -1 1 C-0.67 0.67 -0.34 0.34 0 0 Z " fill="#2C62C8" transform="translate(37,521)"/>
<path d="M0 0 C0.66 0.33 1.32 0.66 2 1 C1.09515208 2.15518918 0.1755794 3.29885406 -0.75 4.4375 C-1.26046875 5.07558594 -1.7709375 5.71367187 -2.296875 6.37109375 C-4.19667629 8.18810554 -5.43586908 8.60423197 -8 9 C-7.04270084 7.87411986 -6.08412105 6.7493285 -5.125 5.625 C-4.59132813 4.99851562 -4.05765625 4.37203125 -3.5078125 3.7265625 C-2.38567993 2.44163349 -1.20628025 1.20628025 0 0 Z " fill="#1E2B5D" transform="translate(617,402)"/>
<path d="M0 0 C0.99 0.33 1.98 0.66 3 1 C3.80078125 2.77734375 3.80078125 2.77734375 4.3125 4.9375 C4.49425781 5.64777344 4.67601562 6.35804688 4.86328125 7.08984375 C4.93095703 8.03537109 4.93095703 8.03537109 5 9 C4.34 9.66 3.68 10.32 3 11 C2.49632243 9.54293274 1.99717444 8.08429904 1.5 6.625 C1.2215625 5.81289063 0.943125 5.00078125 0.65625 4.1640625 C0 2 0 2 0 0 Z " fill="#33B7AC" transform="translate(156,494)"/>
<path d="M0 0 C0.99 0.33 1.98 0.66 3 1 C1.7934375 2.0828125 1.7934375 2.0828125 0.5625 3.1875 C-2.02292072 6.02515689 -2.68042813 7.27166147 -3 11 C-3.33 11 -3.66 11 -4 11 C-4.36630156 7.06225823 -4.30233203 5.43460229 -2 2.125 C-1.34 1.42375 -0.68 0.7225 0 0 Z " fill="#1A4FC4" transform="translate(135,434)"/>
<path d="M0 0 C1 3 1 3 0.22265625 4.82421875 C-0.8515625 6.54947917 -1.92578125 8.27473958 -3 10 C-3.66 10 -4.32 10 -5 10 C-3.84414715 6.08788267 -2.64465038 3.1254959 0 0 Z " fill="#34406B" transform="translate(608,411)"/>
<path d="M0 0 C9.41002278 -0.3690205 9.41002278 -0.3690205 14 2 C13.01 2.66 12.02 3.32 11 4 C8.125 3.1875 8.125 3.1875 5 2 C3.33911955 1.63893903 1.67381019 1.29537827 0 1 C0 0.67 0 0.34 0 0 Z " fill="#1045C2" transform="translate(87,297)"/>
<path d="M0 0 C0.33 0 0.66 0 1 0 C1.2475 0.928125 1.495 1.85625 1.75 2.8125 C3.06454245 6.16458325 3.97963384 7.1877803 7 9 C4 10 4 10 1.8125 9 C0 7 0 7 -0.25 3.3125 C-0.1675 2.219375 -0.085 1.12625 0 0 Z " fill="#1AAEA2" transform="translate(216,460)"/>
<path d="M0 0 C0.66 0.33 1.32 0.66 2 1 C2 1.66 2 2.32 2 3 C0.71349294 3.69710731 -0.57940665 4.38242876 -1.875 5.0625 C-2.95394531 5.63677734 -2.95394531 5.63677734 -4.0546875 6.22265625 C-4.69664062 6.47917969 -5.33859375 6.73570312 -6 7 C-6.66 6.67 -7.32 6.34 -8 6 C-5.36 4.02 -2.72 2.04 0 0 Z " fill="#2B58C7" transform="translate(245,271)"/>
<path d="M0 0 C3.94120709 0.56302958 6.7508723 1.6791945 10 4 C10 4.66 10 5.32 10 6 C6.40992874 4.66654496 3.20429093 3.1056769 0 1 C0 0.67 0 0.34 0 0 Z " fill="#1C67C4" transform="translate(41,576)"/>
<path d="M0 0 C0.99 0.66 1.98 1.32 3 2 C1.68 3.32 0.36 4.64 -1 6 C-1.99 5.67 -2.98 5.34 -4 5 C-2.68 3.35 -1.36 1.7 0 0 Z " fill="#263666" transform="translate(677,511)"/>
<path d="M0 0 C0.33 0 0.66 0 1 0 C1.05391993 1.79133978 1.09275571 3.58313899 1.125 5.375 C1.14820313 6.37273437 1.17140625 7.37046875 1.1953125 8.3984375 C1 11 1 11 -1 13 C-1.38218767 11.34385343 -1.71395102 9.67542976 -2 8 C-1.67 7.67 -1.34 7.34 -1 7 C-0.63239269 4.67182036 -0.29758419 2.3381615 0 0 Z " fill="#2056C5" transform="translate(132,451)"/>
<path d="M0 0 C0.66 0.33 1.32 0.66 2 1 C-0.31 3.64 -2.62 6.28 -5 9 C-5 4.61031544 -2.87194899 3.23094261 0 0 Z " fill="#BFC5D3" transform="translate(626,415)"/>
<path d="M0 0 C0.66 0.66 1.32 1.32 2 2 C-0.64 4.31 -3.28 6.62 -6 9 C-6.66 8.67 -7.32 8.34 -8 8 C-6.50260417 6.79557292 -5.00520833 5.59114583 -3.5078125 4.38671875 C-1.74707893 2.87729455 -1.74707893 2.87729455 0 0 Z " fill="#D6DAE2" transform="translate(604,326)"/>
<path d="M0 0 C3.81684226 1.55500981 6.19195732 4.03595495 9 7 C8.67 7.66 8.34 8.32 8 9 C5.06799526 6.14723863 2.35684596 3.34920216 0 0 Z " fill="#253161" transform="translate(488,288)"/>
<path d="M0 0 C2.64752004 2.57784846 4.94432065 4.91648098 7 8 C6.01 8 5.02 8 4 8 C0 3.77142857 0 3.77142857 0 0 Z " fill="#1758C5" transform="translate(29,562)"/>
<path d="M0 0 C5.57142857 5.14285714 5.57142857 5.14285714 6 9 C3 8 3 8 1.3125 5.625 C0 3 0 3 0 0 Z " fill="#283464" transform="translate(800,556)"/>
<path d="M0 0 C0 3 0 3 -1.53125 4.60546875 C-2.1809375 5.12753906 -2.830625 5.64960938 -3.5 6.1875 C-4.1496875 6.71730469 -4.799375 7.24710937 -5.46875 7.79296875 C-5.9740625 8.19128906 -6.479375 8.58960938 -7 9 C-7 6 -7 6 -5.46875 4.39453125 C-4.49421875 3.61142578 -4.49421875 3.61142578 -3.5 2.8125 C-2.8503125 2.28269531 -2.200625 1.75289063 -1.53125 1.20703125 C-1.0259375 0.80871094 -0.520625 0.41039062 0 0 Z " fill="#D5D9E1" transform="translate(579,469)"/>
<path d="M0 0 C4.28806873 0.47645208 6.26647487 1.65902484 9 5 C9 5.66 9 6.32 9 7 C5.62660226 5.87553409 4.39930725 4.55410127 2 2 C1.34 1.34 0.68 0.68 0 0 Z " fill="#1DAEA2" transform="translate(228,455)"/>
<path d="M0 0 C0.66 0 1.32 0 2 0 C0.66666667 3.33333333 -0.66666667 6.66666667 -2 10 C-2.6875 8.375 -2.6875 8.375 -3 6 C-1.5625 2.75 -1.5625 2.75 0 0 Z " fill="#45BCB2" transform="translate(159,451)"/>
<path d="M0 0 C0.66 0 1.32 0 2 0 C5 5.625 5 5.625 5 9 C4.34 9 3.68 9 3 9 C2.01 6.03 1.02 3.06 0 0 Z " fill="#142155" transform="translate(676,414)"/>
<path d="M0 0 C1.73543126 2.60314689 2.61121812 3.98694043 3 7 C2.34 7.66 1.68 8.32 1 9 C-1.09230769 4.56923077 -1.09230769 4.56923077 -0.625 1.6875 C-0.41875 1.130625 -0.2125 0.57375 0 0 Z " fill="#303D6B" transform="translate(536,572)"/>
<path d="M0 0 C0.66 0.66 1.32 1.32 2 2 C-0.97 4.475 -0.97 4.475 -4 7 C-3.6875 4.625 -3.6875 4.625 -3 2 C-2.01 1.34 -1.02 0.68 0 0 Z " fill="#2156C5" transform="translate(47,505)"/>
<path d="M0 0 C0.99 0.33 1.98 0.66 3 1 C4.1875 3.5625 4.1875 3.5625 5 6 C4.34 6.66 3.68 7.32 3 8 C0 2.25 0 2.25 0 0 Z " fill="#2456C6" transform="translate(112,476)"/>
<path d="M0 0 C5.45454545 0.45454545 5.45454545 0.45454545 8 3 C4.49064814 3 1.43515002 2.62457273 -2 2 C-1.34 1.34 -0.68 0.68 0 0 Z " fill="#22B0A6" transform="translate(244,409)"/>
<path d="M0 0 C0.33 0 0.66 0 1 0 C1 3.63 1 7.26 1 11 C0.01 11.33 -0.98 11.66 -2 12 C-1.34 8.04 -0.68 4.08 0 0 Z " fill="#475279" transform="translate(483,306)"/>
</svg>
